<svg width="28" height="28" viewBox="0 0 28 28" fill="none" xmlns="http://www.w3.org/2000/svg">
<path d="M25.6728 12.0909C21.8613 12.089 18.0498 12.0899 14.2384 12.0904C14.2389 13.6713 14.2366 15.2521 14.2394 16.8325C16.4467 16.832 18.654 16.8316 20.8609 16.8325C20.6051 18.3474 19.7048 19.7328 18.4281 20.5856C17.6255 21.1252 16.7035 21.4755 15.7528 21.642C14.7961 21.8053 13.8075 21.8262 12.8531 21.633C11.8826 21.4393 10.9561 21.035 10.1479 20.465C8.85563 19.5571 7.8694 18.2287 7.36302 16.7337C6.84523 15.2132 6.84142 13.5212 7.36539 12.0021C7.72894 10.9314 8.33404 9.94234 9.12895 9.13746C10.1095 8.13369 11.3842 7.41612 12.7577 7.12187C13.9337 6.87082 15.1738 6.91873 16.3252 7.26707C17.3038 7.56419 18.206 8.10045 18.945 8.80616C19.692 8.06341 20.4352 7.31641 21.1808 6.57227C21.5718 6.17173 21.9828 5.78872 22.3616 5.37727C21.2292 4.32934 19.9018 3.48697 18.4514 2.95447C15.8402 1.99347 12.8953 1.97307 10.2666 2.8829C7.30414 3.89709 4.78168 6.11246 3.3831 8.91259C2.89618 9.87745 2.54068 10.9073 2.32712 11.9666C1.78987 14.6057 2.16434 17.4197 3.38166 19.8234C4.17282 21.3924 5.30707 22.7872 6.68294 23.8807C7.98096 24.9158 9.49393 25.6804 11.0981 26.107C13.1222 26.65 15.2768 26.6376 17.3143 26.174C19.1557 25.7502 20.8979 24.8703 22.2889 23.586C23.7592 22.2348 24.8081 20.4546 25.3633 18.5416C25.9689 16.4548 26.0524 14.227 25.6728 12.0909Z" fill="white"/>
</svg>
