<?xml version="1.0" encoding="utf-8"?>
<!-- Generator: Adobe Illustrator 27.8.1, SVG Export Plug-In . SVG Version: 6.00 Build 0)  -->
<svg version="1.1" id="Layer_1" xmlns="http://www.w3.org/2000/svg" xmlns:xlink="http://www.w3.org/1999/xlink" x="0px" y="0px"
	 viewBox="0 0 1080 1080" style="enable-background:new 0 0 1080 1080;" xml:space="preserve">
<style type="text/css">
	.st0{fill:#D0D0D0;}
	.st1{fill:#6CAEC8;}
	.st2{fill:#FFFFFF;}
	.st3{fill:url(#SVGID_1_);}
	.st4{fill:url(#SVGID_00000061450416685861585930000002828478994077888665_);}
	.st5{fill:url(#SVGID_00000093138254094388198050000003019137087251277208_);}
	.st6{fill:url(#SVGID_00000116930467200391135030000013342550917508710288_);}
	.st7{fill:url(#SVGID_00000150789907774551034260000007364098733632338863_);}
	.st8{fill:url(#SVGID_00000174592447511479658700000010230109949263375759_);}
	.st9{fill:url(#SVGID_00000144314255470402603120000016121930878203527088_);}
	.st10{fill:url(#SVGID_00000166657240922810525760000009396126763980318143_);}
	.st11{fill:url(#SVGID_00000139258839963558491800000011954157867296061824_);}
	.st12{fill:url(#SVGID_00000085972929011663359630000003454182872989526162_);}
	.st13{fill:url(#SVGID_00000005232834322227546520000018133557887233647540_);}
	.st14{fill:url(#SVGID_00000016062024905377175930000002016995475260953728_);}
	.st15{fill:url(#SVGID_00000166634588817096428650000006726981816045521037_);}
	.st16{fill:url(#SVGID_00000019680581778022885260000015524109647614463893_);}
	.st17{fill:url(#SVGID_00000166655236882017538230000013379424873896040630_);}
	.st18{fill:url(#SVGID_00000134229522982342252900000011443856204909830023_);}
	.st19{fill:url(#SVGID_00000103958789286356355420000007933578413885424558_);}
	.st20{fill:url(#SVGID_00000067231506403633657740000012856044072118130092_);}
	.st21{fill:url(#SVGID_00000153679116475869950470000001921563102809569695_);}
	.st22{fill:url(#SVGID_00000074403454700978745250000006150624917377618592_);}
	.st23{fill:#40A7F6;}
	.st24{fill:#5E5E5E;}
	.st25{fill:url(#SVGID_00000079471107290679102420000010079148300515081400_);}
	.st26{fill:url(#SVGID_00000074416028365830652840000003789229106205248666_);}
	.st27{fill:url(#SVGID_00000070806067780964651120000000959882434496488339_);}
	.st28{fill:url(#SVGID_00000171707848100966268790000015091606564591243909_);}
	.st29{fill:url(#SVGID_00000018959303210263643440000008623558532230398899_);}
	.st30{fill:url(#SVGID_00000029031719288622770610000011581583327387439278_);}
	.st31{fill:url(#SVGID_00000070840244447011122200000010190909638412472734_);}
	.st32{fill:url(#SVGID_00000127742625601522152560000010999208555849295546_);}
	.st33{fill:url(#SVGID_00000178896030438397377350000006162544432471897757_);}
	.st34{fill:url(#SVGID_00000174599094388787732120000018437130195640419223_);}
	.st35{fill:url(#SVGID_00000071528363951480119930000010585995869006871217_);}
	.st36{fill:url(#SVGID_00000062906402007474787600000015829875129324553347_);}
	.st37{fill:url(#SVGID_00000095298839822425882840000000466871651352766345_);}
	.st38{fill:url(#SVGID_00000000215938639222677290000003521089760388350634_);}
	.st39{fill:url(#SVGID_00000019657328115776388230000001827622543366063516_);}
	.st40{fill:url(#SVGID_00000165913293689840537580000001176318700742830730_);}
	.st41{fill:url(#SVGID_00000053545610612512438210000001817378932374775986_);}
	.st42{fill:url(#SVGID_00000181773548882594361050000018014146998301617840_);}
	.st43{fill:url(#SVGID_00000114044184288201271830000000493142118775029128_);}
	.st44{fill:url(#SVGID_00000037671429320148953520000008239777652568330161_);}
	.st45{fill:url(#SVGID_00000078043918284616723480000008195032645875378573_);}
	.st46{fill:url(#SVGID_00000086659830688283761590000015552204097529874577_);}
	.st47{fill:url(#SVGID_00000126299661982919760700000016785376890239209092_);}
	.st48{fill:url(#SVGID_00000037688133356705558130000014621280425097420459_);}
	.st49{fill:url(#SVGID_00000037669217179541344700000000930412754021894029_);}
	.st50{fill:url(#SVGID_00000043424098068467730500000007291239333622800038_);}
	.st51{fill:url(#SVGID_00000163046467002833174710000013690305738507875514_);}
	.st52{fill:url(#SVGID_00000093174306260860946730000003274056226061546139_);}
	.st53{fill:url(#SVGID_00000039102228178407882130000000816021841018245508_);}
	.st54{fill:url(#SVGID_00000138573912559768818910000000281568253354653832_);}
	.st55{fill:url(#SVGID_00000077323744888399805750000004541077897047342481_);}
	.st56{fill:url(#SVGID_00000103976013181311623130000012963538993851237526_);}
	.st57{fill:url(#SVGID_00000183938888996212816960000006099625238107518347_);}
	.st58{fill:url(#SVGID_00000034795479377355457620000008600017957028709549_);}
	.st59{fill:url(#SVGID_00000067211060498629293830000006649608582525927609_);}
	.st60{fill:url(#SVGID_00000050662477991645637830000000924872322617814459_);}
	.st61{fill:url(#SVGID_00000046309616594505845730000003687280433491751352_);}
	.st62{fill:url(#SVGID_00000133519520560947163160000000495423373595463314_);}
	.st63{fill:url(#SVGID_00000183959799803340723880000007258849054132858278_);}
	.st64{fill:url(#SVGID_00000183233977339630449070000005190106793832411016_);}
	.st65{fill:url(#SVGID_00000063619863434087587360000006026295524882129059_);}
	.st66{fill:url(#SVGID_00000116921768805761991740000003759514184759799938_);}
	.st67{fill:url(#SVGID_00000080165667092597181410000004840311131071142808_);}
	.st68{fill:url(#SVGID_00000004537958437849778530000010254382822541422742_);}
	.st69{fill:url(#SVGID_00000133492455074060612690000010939013592220228008_);}
	.st70{fill:url(#SVGID_00000145771142158735442390000018111294702964883897_);}
	.st71{fill:url(#SVGID_00000049217727475270042710000017772257646077621147_);}
	.st72{fill:url(#SVGID_00000141418694345664141760000000362961714739213752_);}
	.st73{fill:url(#SVGID_00000174563254252867708640000010637248698147556234_);}
	.st74{fill:url(#SVGID_00000004529030492921041030000009886739411244284552_);}
	.st75{fill:url(#SVGID_00000103967607586608347520000003404904818787692713_);}
	.st76{fill:url(#SVGID_00000069386460344576507880000018232729735959031430_);}
	.st77{fill:url(#SVGID_00000153700811565966230930000008587709175447812517_);}
	.st78{fill:url(#SVGID_00000062163136159983260350000009118565487456091838_);}
	.st79{fill:url(#SVGID_00000012466264632083857430000013808140350569399687_);}
	.st80{fill:url(#SVGID_00000176726925967972977590000017710308751278615717_);}
	.st81{fill:url(#SVGID_00000132047579500094105350000003643722281382726022_);}
	.st82{fill:url(#SVGID_00000007401644884963281150000002314221726586143903_);}
	.st83{fill:url(#SVGID_00000147903136327308922660000005145014156467374210_);}
	.st84{fill:url(#SVGID_00000021109359726727022440000017043363353695727260_);}
	.st85{fill:url(#SVGID_00000052822002952893813070000014922140268304143018_);}
	.st86{fill:url(#SVGID_00000111171201594081409330000009881949124714322587_);}
	.st87{fill:url(#SVGID_00000013171232770943114770000012494642365785852349_);}
	.st88{fill:url(#SVGID_00000013874190787831477770000014561659327015482545_);}
	.st89{fill:url(#SVGID_00000088111197957000204430000008206232727834981510_);}
	.st90{fill:url(#SVGID_00000125584458971680359630000017456348287891781262_);}
	.st91{fill:url(#SVGID_00000097460999151538076700000016965434913974416820_);}
	.st92{fill:url(#SVGID_00000114783318278999006700000010950534890843633046_);}
	.st93{fill:url(#SVGID_00000052821235520871457500000007659998416585437828_);}
	.st94{fill:url(#SVGID_00000008132504646179637120000005243857540486429093_);}
	.st95{fill:url(#SVGID_00000111162589579073288750000006616056678295035531_);}
	.st96{fill:url(#SVGID_00000016049128870524724630000011450829496068547238_);}
	.st97{fill:url(#SVGID_00000078039285719831222300000015573696316881562043_);}
	.st98{fill:url(#SVGID_00000039101330042867709650000012064900562846139052_);}
	.st99{fill:url(#SVGID_00000099626126513036594950000009402195558460148357_);}
	.st100{fill:url(#SVGID_00000071519912002115252250000013270783533181469116_);}
	.st101{fill:url(#SVGID_00000013912888598547125850000003872466129682053266_);}
	.st102{fill:url(#SVGID_00000158001693146827454550000008021850092397013439_);}
	.st103{fill:url(#SVGID_00000072991049270902862840000008987378113375013541_);}
	.st104{fill:url(#SVGID_00000001635188066967097370000010322697022332901049_);}
</style>
<g>
	<g>
		<g>
			<g>
				<g>
					<path class="st0" d="M379.25,554.33l-15.03-15.77l10.26-19.22l10.75-20.13l-16.52,15.75l-15.76,15.03l-19.22-10.26
						l-20.13-10.75l15.75,16.52l15.03,15.76l-10.26,19.22l-10.75,20.13l16.52-15.75l15.77-15.04l19.21,10.26L395,570.84
						L379.25,554.33z M354.3,539.91l1.01,8.5l-0.53,0.51l-15.77,15.03l-10.8,10.3L354.3,539.91l-8.49,1.01l-0.51-0.53l-15.03-15.76
						l-10.3-10.8L354.3,539.91l-1.01-8.5l0.53-0.5l15.77-15.03l10.8-10.3L354.3,539.91l8.5-1.01l0.5,0.53l15.03,15.77l10.3,10.8
						L354.3,539.91z"/>
					<polygon class="st1" points="380.39,505.58 354.3,539.91 353.29,531.41 353.82,530.91 369.59,515.88 					"/>
					<polygon class="st2" points="388.63,566 354.3,539.91 362.8,538.9 363.3,539.43 378.33,555.2 					"/>
					<polygon class="st2" points="355.31,548.41 354.78,548.92 339.01,563.95 328.21,574.25 354.3,539.91 					"/>
					<polygon class="st2" points="354.3,539.91 345.81,540.92 345.3,540.39 330.27,524.63 319.96,513.83 					"/>
					<polygon class="st2" points="380.39,505.58 354.3,539.91 353.29,531.41 353.82,530.91 369.59,515.88 					"/>
				</g>
				<g>
					<path class="st0" d="M361.75,567.75l0.52-21.78l20.84-6.33l21.83-6.63l-22.82-0.54l-21.78-0.52l-6.33-20.84l-6.64-21.84
						l-0.54,22.82l-0.52,21.78l-20.85,6.34l-21.83,6.63l22.82,0.54l21.78,0.52l6.33,20.84l6.64,21.84L361.75,567.75z M354.3,539.91
						l-5.29,6.72l-0.73-0.01l-21.78-0.52l-14.92-0.35L354.3,539.91l-6.72-5.29l0.02-0.74l0.52-21.78l0.35-14.92L354.3,539.91
						l5.3-6.72l0.73,0.02l21.78,0.52l14.92,0.35L354.3,539.91l6.73,5.3l-0.02,0.73l-0.52,21.78l-0.35,14.92L354.3,539.91z"/>
					<polygon class="st1" points="397.03,534.08 354.3,539.91 359.6,533.19 360.33,533.21 382.11,533.73 					"/>
					<polygon class="st2" points="360.13,582.64 354.3,539.91 361.02,545.21 361.01,545.94 360.49,567.72 					"/>
					<polygon class="st2" points="349,546.63 348.27,546.62 326.49,546.1 311.57,545.75 354.3,539.91 					"/>
					<polygon class="st2" points="354.3,539.91 347.58,534.62 347.6,533.89 348.11,512.11 348.47,497.19 					"/>
					<polygon class="st2" points="397.03,534.08 354.3,539.91 359.6,533.19 360.33,533.21 382.11,533.73 					"/>
				</g>
				<g>
					<path class="st0" d="M371.67,562.91l-7.7-20.37l16.93-13.71l17.74-14.36l-21.35,8.07l-20.37,7.71l-13.71-16.93l-14.36-17.74
						l8.07,21.35l7.71,20.37L327.7,551l-17.74,14.36l21.35-8.07l20.38-7.71l13.7,16.93l14.36,17.74L371.67,562.91z M354.3,539.91
						l-2.38,8.22l-0.68,0.26l-20.38,7.71l-13.96,5.28L354.3,539.91l-8.21-2.38l-0.26-0.69l-7.71-20.37l-5.28-13.96L354.3,539.91
						l2.38-8.22l0.68-0.26l20.38-7.71l13.96-5.28L354.3,539.91l8.23,2.38l0.26,0.68l7.7,20.37l5.28,13.96L354.3,539.91z"/>
					<polygon class="st1" points="391.7,518.45 354.3,539.91 356.68,531.69 357.36,531.43 377.74,523.73 					"/>
					<polygon class="st2" points="375.76,577.31 354.3,539.91 362.52,542.29 362.78,542.98 370.48,563.35 					"/>
					<polygon class="st2" points="351.92,548.13 351.23,548.39 330.86,556.1 316.9,561.38 354.3,539.91 					"/>
					<polygon class="st2" points="354.3,539.91 346.08,537.54 345.82,536.85 338.11,516.48 332.83,502.51 					"/>
					<polygon class="st2" points="391.7,518.45 354.3,539.91 356.68,531.69 357.36,531.43 377.74,523.73 					"/>
				</g>
			</g>
			<g>
				<linearGradient id="SVGID_1_" gradientUnits="userSpaceOnUse" x1="281.544" y1="539.9147" x2="418.9837" y2="539.9147">
					<stop  offset="0" style="stop-color:#BD9E6A"/>
					<stop  offset="1" style="stop-color:#D4C08B"/>
				</linearGradient>
				<path class="st3" d="M354.3,483.54c15.06,0,29.21,5.86,39.86,16.51c10.65,10.65,16.51,24.8,16.51,39.86s-5.86,29.21-16.51,39.86
					c-10.65,10.65-24.8,16.51-39.86,16.51c-15.06,0-29.21-5.86-39.86-16.51c-10.65-10.65-16.51-24.8-16.51-39.86
					s5.86-29.21,16.51-39.86C325.09,489.41,339.24,483.54,354.3,483.54 M354.3,481.43c-32.3,0-58.48,26.18-58.48,58.48
					c0,32.3,26.18,58.48,58.48,58.48c32.3,0,58.48-26.18,58.48-58.48C412.78,507.62,386.6,481.43,354.3,481.43L354.3,481.43z"/>
				<g>
					
						<linearGradient id="SVGID_00000043418645152982219820000001110650579873459599_" gradientUnits="userSpaceOnUse" x1="281.544" y1="539.9146" x2="418.9837" y2="539.9146">
						<stop  offset="0" style="stop-color:#BD9E6A"/>
						<stop  offset="1" style="stop-color:#D4C08B"/>
					</linearGradient>
					<path style="fill:url(#SVGID_00000043418645152982219820000001110650579873459599_);" d="M354.3,489.43
						c13.48,0,26.16,5.25,35.7,14.79c9.53,9.53,14.79,22.21,14.79,35.7c0,13.48-5.25,26.16-14.79,35.7
						c-9.53,9.53-22.21,14.79-35.7,14.79c-13.48,0-26.16-5.25-35.7-14.79c-9.53-9.53-14.79-22.21-14.79-35.7
						c0-13.48,5.25-26.16,14.79-35.7C328.14,494.68,340.81,489.43,354.3,489.43 M354.3,487.32c-29.05,0-52.59,23.55-52.59,52.59
						c0,29.05,23.55,52.59,52.59,52.59c29.05,0,52.59-23.55,52.59-52.59C406.89,510.87,383.34,487.32,354.3,487.32L354.3,487.32z"/>
				</g>
				<g>
					<g>
						<g>
							
								<linearGradient id="SVGID_00000079450024678565636630000000950426659453310368_" gradientUnits="userSpaceOnUse" x1="281.544" y1="593.3534" x2="418.9837" y2="593.3534">
								<stop  offset="0" style="stop-color:#BD9E6A"/>
								<stop  offset="1" style="stop-color:#D4C08B"/>
							</linearGradient>
							<polygon style="fill:url(#SVGID_00000079450024678565636630000000950426659453310368_);" points="349.85,591.88 
								349.49,596.73 339.57,594.94 341.12,589.98 							"/>
							
								<linearGradient id="SVGID_00000054244610456940539230000005510120881865558192_" gradientUnits="userSpaceOnUse" x1="281.544" y1="587.371" x2="418.9837" y2="587.371">
								<stop  offset="0" style="stop-color:#BD9E6A"/>
								<stop  offset="1" style="stop-color:#D4C08B"/>
							</linearGradient>
							<polygon style="fill:url(#SVGID_00000054244610456940539230000005510120881865558192_);" points="332.11,587.28 
								330.37,591.81 321.38,587.23 324.3,582.93 							"/>
							
								<linearGradient id="SVGID_00000181070480545273821270000013002979423522535099_" gradientUnits="userSpaceOnUse" x1="281.544" y1="575.1331" x2="418.9837" y2="575.1331">
								<stop  offset="0" style="stop-color:#BD9E6A"/>
								<stop  offset="1" style="stop-color:#D4C08B"/>
							</linearGradient>
							<path style="fill:url(#SVGID_00000181070480545273821270000013002979423522535099_);" d="M317.61,576.21
								c-1.26,1.41-2.52,2.82-3.77,4.24c-2.17-2.45-4.33-4.89-6.5-7.34l4.02-3.29C313.45,571.95,315.53,574.08,317.61,576.21z"/>
							
								<linearGradient id="SVGID_00000148637668615782058370000008217287649524925583_" gradientUnits="userSpaceOnUse" x1="281.544" y1="558.5919" x2="418.9837" y2="558.5919">
								<stop  offset="0" style="stop-color:#BD9E6A"/>
								<stop  offset="1" style="stop-color:#D4C08B"/>
							</linearGradient>
							<path style="fill:url(#SVGID_00000148637668615782058370000008217287649524925583_);" d="M307.59,561.4
								c-1.68,0.87-3.36,1.73-5.04,2.6c-1.14-3.06-2.29-6.12-3.43-9.18l4.94-1.63C305.23,555.92,306.41,558.66,307.59,561.4z"/>
						</g>
						<g>
							
								<linearGradient id="SVGID_00000124870751476377871610000006626805781121674121_" gradientUnits="userSpaceOnUse" x1="281.544" y1="486.285" x2="418.9837" y2="486.285">
								<stop  offset="0" style="stop-color:#BD9E6A"/>
								<stop  offset="1" style="stop-color:#D4C08B"/>
							</linearGradient>
							<polygon style="fill:url(#SVGID_00000124870751476377871610000006626805781121674121_);" points="349.89,487.75 
								349.53,482.91 339.61,484.7 341.16,489.66 							"/>
							
								<linearGradient id="SVGID_00000130616682270498390030000017061175889365641407_" gradientUnits="userSpaceOnUse" x1="281.544" y1="492.2674" x2="418.9837" y2="492.2674">
								<stop  offset="0" style="stop-color:#BD9E6A"/>
								<stop  offset="1" style="stop-color:#D4C08B"/>
							</linearGradient>
							<polygon style="fill:url(#SVGID_00000130616682270498390030000017061175889365641407_);" points="332.15,492.36 
								330.41,487.83 321.42,492.4 324.34,496.71 							"/>
							
								<linearGradient id="SVGID_00000025401262285755964140000008569566381339756180_" gradientUnits="userSpaceOnUse" x1="281.544" y1="504.5053" x2="418.9837" y2="504.5053">
								<stop  offset="0" style="stop-color:#BD9E6A"/>
								<stop  offset="1" style="stop-color:#D4C08B"/>
							</linearGradient>
							<path style="fill:url(#SVGID_00000025401262285755964140000008569566381339756180_);" d="M317.65,503.43
								c-1.26-1.41-2.52-2.82-3.77-4.24c-2.17,2.45-4.33,4.89-6.5,7.34l4.02,3.29C313.49,507.69,315.57,505.56,317.65,503.43z"/>
							
								<linearGradient id="SVGID_00000052095787094018745680000005492337759502619835_" gradientUnits="userSpaceOnUse" x1="281.544" y1="521.0466" x2="418.9837" y2="521.0466">
								<stop  offset="0" style="stop-color:#BD9E6A"/>
								<stop  offset="1" style="stop-color:#D4C08B"/>
							</linearGradient>
							<path style="fill:url(#SVGID_00000052095787094018745680000005492337759502619835_);" d="M307.63,518.24
								c-1.68-0.87-3.36-1.73-5.04-2.6c-1.14,3.06-2.29,6.12-3.43,9.18l4.94,1.63C305.27,523.72,306.45,520.98,307.63,518.24z"/>
						</g>
						
							<linearGradient id="SVGID_00000152983286166062552000000005594468935474992812_" gradientUnits="userSpaceOnUse" x1="281.544" y1="539.9644" x2="418.9837" y2="539.9644">
							<stop  offset="0" style="stop-color:#BD9E6A"/>
							<stop  offset="1" style="stop-color:#D4C08B"/>
						</linearGradient>
						<path style="fill:url(#SVGID_00000152983286166062552000000005594468935474992812_);" d="M302.76,544.36
							c-1.88,0.19-3.76,0.37-5.64,0.56c0.07-3.3,0.14-6.6,0.21-9.9c1.73,0.01,3.47,0.02,5.2,0.03
							C302.61,538.15,302.68,541.25,302.76,544.36z"/>
					</g>
					<g>
						<g>
							
								<linearGradient id="SVGID_00000011725036518590100440000002633332411217920958_" gradientUnits="userSpaceOnUse" x1="281.544" y1="593.3534" x2="418.9837" y2="593.3534">
								<stop  offset="0" style="stop-color:#BD9E6A"/>
								<stop  offset="1" style="stop-color:#D4C08B"/>
							</linearGradient>
							<polygon style="fill:url(#SVGID_00000011725036518590100440000002633332411217920958_);" points="358.92,591.88 
								359.28,596.73 369.21,594.94 367.66,589.98 							"/>
							
								<linearGradient id="SVGID_00000069368121126237577690000007700513669553645238_" gradientUnits="userSpaceOnUse" x1="281.544" y1="587.371" x2="418.9837" y2="587.371">
								<stop  offset="0" style="stop-color:#BD9E6A"/>
								<stop  offset="1" style="stop-color:#D4C08B"/>
							</linearGradient>
							<polygon style="fill:url(#SVGID_00000069368121126237577690000007700513669553645238_);" points="376.66,587.28 
								378.41,591.81 387.39,587.23 384.48,582.93 							"/>
							
								<linearGradient id="SVGID_00000075881037759382624760000012421870127173088668_" gradientUnits="userSpaceOnUse" x1="281.544" y1="575.1331" x2="418.9837" y2="575.1331">
								<stop  offset="0" style="stop-color:#BD9E6A"/>
								<stop  offset="1" style="stop-color:#D4C08B"/>
							</linearGradient>
							<path style="fill:url(#SVGID_00000075881037759382624760000012421870127173088668_);" d="M391.16,576.21
								c1.26,1.41,2.52,2.82,3.77,4.24c2.17-2.45,4.33-4.89,6.5-7.34l-4.02-3.29C395.33,571.95,393.25,574.08,391.16,576.21z"/>
							
								<linearGradient id="SVGID_00000047757092045566453290000005759508467867239322_" gradientUnits="userSpaceOnUse" x1="281.544" y1="558.5919" x2="418.9837" y2="558.5919">
								<stop  offset="0" style="stop-color:#BD9E6A"/>
								<stop  offset="1" style="stop-color:#D4C08B"/>
							</linearGradient>
							<path style="fill:url(#SVGID_00000047757092045566453290000005759508467867239322_);" d="M401.19,561.4
								c1.68,0.87,3.36,1.73,5.04,2.6c1.14-3.06,2.29-6.12,3.43-9.18l-4.94-1.63C403.55,555.92,402.37,558.66,401.19,561.4z"/>
						</g>
						<g>
							
								<linearGradient id="SVGID_00000141452287275840618800000007721115645656941460_" gradientUnits="userSpaceOnUse" x1="281.544" y1="486.285" x2="418.9837" y2="486.285">
								<stop  offset="0" style="stop-color:#BD9E6A"/>
								<stop  offset="1" style="stop-color:#D4C08B"/>
							</linearGradient>
							<polygon style="fill:url(#SVGID_00000141452287275840618800000007721115645656941460_);" points="358.88,487.75 
								359.24,482.91 369.17,484.7 367.62,489.66 							"/>
							
								<linearGradient id="SVGID_00000007403571638497667370000009323391533436306106_" gradientUnits="userSpaceOnUse" x1="281.544" y1="492.2674" x2="418.9837" y2="492.2674">
								<stop  offset="0" style="stop-color:#BD9E6A"/>
								<stop  offset="1" style="stop-color:#D4C08B"/>
							</linearGradient>
							<polygon style="fill:url(#SVGID_00000007403571638497667370000009323391533436306106_);" points="376.62,492.36 
								378.37,487.83 387.35,492.4 384.44,496.71 							"/>
							
								<linearGradient id="SVGID_00000080912073005910859110000008093963442515236282_" gradientUnits="userSpaceOnUse" x1="281.544" y1="504.5053" x2="418.9837" y2="504.5053">
								<stop  offset="0" style="stop-color:#BD9E6A"/>
								<stop  offset="1" style="stop-color:#D4C08B"/>
							</linearGradient>
							<path style="fill:url(#SVGID_00000080912073005910859110000008093963442515236282_);" d="M391.12,503.43
								c1.26-1.41,2.52-2.82,3.77-4.24c2.17,2.45,4.33,4.89,6.5,7.34l-4.02,3.29C395.29,507.69,393.21,505.56,391.12,503.43z"/>
							
								<linearGradient id="SVGID_00000137824608885429723520000006822872872657872039_" gradientUnits="userSpaceOnUse" x1="281.544" y1="521.0466" x2="418.9837" y2="521.0466">
								<stop  offset="0" style="stop-color:#BD9E6A"/>
								<stop  offset="1" style="stop-color:#D4C08B"/>
							</linearGradient>
							<path style="fill:url(#SVGID_00000137824608885429723520000006822872872657872039_);" d="M401.15,518.24
								c1.68-0.87,3.36-1.73,5.04-2.6c1.14,3.06,2.29,6.12,3.43,9.18l-4.94,1.63C403.51,523.72,402.33,520.98,401.15,518.24z"/>
						</g>
						
							<linearGradient id="SVGID_00000126302049373516371170000011385865663965580680_" gradientUnits="userSpaceOnUse" x1="281.544" y1="539.9644" x2="418.9837" y2="539.9644">
							<stop  offset="0" style="stop-color:#BD9E6A"/>
							<stop  offset="1" style="stop-color:#D4C08B"/>
						</linearGradient>
						<path style="fill:url(#SVGID_00000126302049373516371170000011385865663965580680_);" d="M406.01,544.36
							c1.88,0.19,3.76,0.37,5.64,0.56c-0.07-3.3-0.14-6.6-0.21-9.9c-1.73,0.01-3.47,0.02-5.2,0.03
							C406.17,538.15,406.09,541.25,406.01,544.36z"/>
					</g>
				</g>
			</g>
		</g>
		<g>
			<path class="st23" d="M288.66,522.57l27.76,12.31l26.49,11.74l-2.85,28.84l-2.98,30.22l12.31-27.76l11.75-26.5l28.84,2.85
				l30.22,2.98l-27.76-12.3l-26.49-11.75l2.84-28.84l2.98-30.22l-12.3,27.76l-11.74,26.5l-28.84-2.84L288.66,522.57z M298.95,525.28
				l19.76,1.95l28.85,2.85l0.97,0.1l5.9,9.74l14.63-55.49l-1.95,19.77l-2.85,28.85l-0.1,0.97l-9.74,5.9l55.48,14.63l-19.76-1.95
				l-28.84-2.85l-0.97-0.1l-5.9-9.73l-14.63,55.49l1.95-19.77l2.86-28.85l0.1-0.97l9.73-5.9L298.95,525.28z"/>
			<polygon class="st2" points="298.95,525.28 354.43,539.91 348.52,530.18 347.56,530.08 318.71,527.23 			"/>
			<polygon class="st2" points="344.69,545.82 344.6,546.78 341.74,575.63 339.79,595.4 354.43,539.91 			"/>
			<polygon class="st2" points="354.43,539.91 360.33,549.65 361.3,549.74 390.14,552.6 409.91,554.54 			"/>
			<polygon class="st2" points="369.06,484.43 354.43,539.91 364.16,534.01 364.26,533.04 367.1,504.19 			"/>
		</g>
		<path class="st24" d="M377.39,461.41v0.33c-0.32,0.04-0.56,0.13-0.71,0.27c-0.16,0.14-0.27,0.35-0.32,0.65
			c-0.05,0.3-0.08,0.71-0.08,1.25v9.18c-0.12-0.01-0.24-0.02-0.36-0.02c-0.12,0-0.26,0.01-0.39,0.02l-6.46-9.05v6.32
			c0,0.6,0.03,1.07,0.09,1.39c0.06,0.32,0.19,0.55,0.39,0.69c0.2,0.14,0.52,0.23,0.96,0.29v0.33c-0.19-0.02-0.44-0.04-0.74-0.04
			c-0.31-0.01-0.6-0.01-0.86-0.01c-0.23,0-0.46,0-0.7,0.01c-0.24,0.01-0.44,0.02-0.6,0.04v-0.33c0.32-0.05,0.56-0.15,0.71-0.28
			c0.16-0.13,0.27-0.35,0.32-0.65c0.05-0.3,0.08-0.72,0.08-1.24v-7.4c0-0.41-0.03-0.7-0.08-0.9c-0.05-0.19-0.16-0.32-0.33-0.39
			c-0.16-0.07-0.4-0.11-0.71-0.12v-0.33c0.16,0.01,0.36,0.02,0.6,0.03c0.24,0.01,0.47,0.02,0.7,0.02c0.24,0,0.47-0.01,0.69-0.02
			c0.22-0.01,0.42-0.02,0.6-0.03l5.76,7.85v-5.15c0-0.6-0.03-1.07-0.09-1.39c-0.06-0.32-0.19-0.56-0.39-0.7
			c-0.2-0.14-0.52-0.24-0.96-0.28v-0.33c0.19,0.01,0.44,0.02,0.74,0.03c0.31,0.01,0.6,0.02,0.86,0.02c0.24,0,0.47-0.01,0.71-0.02
			C377.04,461.43,377.23,461.42,377.39,461.41z"/>
		<path class="st24" d="M335.94,606.5c0.59,0,1.04,0.07,1.36,0.21c0.32,0.14,0.59,0.28,0.82,0.44c0.12,0.08,0.22,0.13,0.29,0.17
			c0.07,0.04,0.15,0.06,0.22,0.06c0.1,0,0.17-0.06,0.22-0.18c0.04-0.12,0.08-0.3,0.11-0.54h0.34c-0.01,0.21-0.02,0.46-0.04,0.75
			c-0.01,0.29-0.02,0.67-0.03,1.14c-0.01,0.47-0.01,1.09-0.01,1.86h-0.34c-0.04-0.57-0.16-1.12-0.36-1.66
			c-0.2-0.54-0.48-0.98-0.84-1.32c-0.36-0.35-0.81-0.52-1.33-0.52c-0.48,0-0.87,0.15-1.18,0.44c-0.31,0.3-0.46,0.71-0.46,1.23
			c0,0.44,0.1,0.81,0.3,1.13c0.2,0.31,0.49,0.62,0.87,0.91c0.38,0.3,0.85,0.65,1.39,1.07c0.48,0.34,0.9,0.68,1.28,1.02
			c0.38,0.34,0.68,0.72,0.91,1.15c0.23,0.43,0.34,0.94,0.34,1.53c0,0.72-0.17,1.32-0.51,1.79c-0.34,0.47-0.79,0.83-1.35,1.06
			c-0.56,0.24-1.17,0.35-1.83,0.35c-0.62,0-1.11-0.07-1.47-0.2c-0.37-0.13-0.68-0.27-0.92-0.41c-0.22-0.15-0.39-0.23-0.51-0.23
			c-0.1,0-0.17,0.06-0.22,0.18c-0.04,0.12-0.08,0.3-0.11,0.54h-0.34c0.02-0.26,0.03-0.57,0.04-0.92c0-0.35,0.01-0.81,0.01-1.37
			c0-0.56,0.01-1.28,0.01-2.15h0.34c0.04,0.72,0.15,1.4,0.34,2.03c0.18,0.63,0.47,1.14,0.85,1.52c0.38,0.38,0.89,0.58,1.53,0.58
			c0.35,0,0.66-0.07,0.93-0.21c0.27-0.14,0.49-0.34,0.66-0.62c0.17-0.27,0.25-0.61,0.25-1.02c0-0.46-0.1-0.86-0.29-1.2
			c-0.19-0.34-0.46-0.66-0.79-0.95c-0.33-0.3-0.72-0.6-1.15-0.9c-0.47-0.34-0.9-0.68-1.31-1.02c-0.41-0.34-0.73-0.73-0.98-1.17
			c-0.24-0.44-0.36-0.96-0.36-1.56c0-0.69,0.16-1.26,0.47-1.7c0.31-0.44,0.72-0.77,1.24-0.99
			C334.82,606.6,335.36,606.5,335.94,606.5z"/>
	</g>
	<g>
		<g>
			<g>
				<g>
					<path class="st24" d="M443.64,552.28V501.3h28.29v3.3H447.3v47.67H443.64z"/>
					<path class="st24" d="M483.77,552.28V501.3h20.96c2.15,0,4.13,0.46,5.92,1.36c1.8,0.91,3.36,2.12,4.7,3.63
						c1.34,1.51,2.38,3.2,3.12,5.06c0.74,1.87,1.11,3.78,1.11,5.74c0,2.73-0.61,5.3-1.83,7.72c-1.22,2.42-2.9,4.39-5.03,5.92
						c-2.13,1.53-4.66,2.3-7.57,2.3h-17.73v19.24H483.77z M487.43,529.66h17.59c2.25,0,4.19-0.6,5.82-1.79
						c1.63-1.2,2.87-2.75,3.73-4.67c0.86-1.91,1.29-3.95,1.29-6.1c0-2.25-0.52-4.32-1.54-6.21c-1.03-1.89-2.39-3.41-4.09-4.56
						c-1.7-1.15-3.58-1.72-5.64-1.72h-17.16V529.66z"/>
					<path class="st24" d="M544.51,501.3h3.16l21.54,50.98h-3.88l-6.95-16.8h-24.63l-6.97,16.8h-3.95L544.51,501.3z M557.13,532.46
						l-11.04-26.71L535,532.46H557.13z"/>
					<path class="st24" d="M576.81,562.04v-13.07h1.94c1.39,0,2.61-0.56,3.66-1.69c1.05-1.12,1.96-2.95,2.73-5.49
						c0.76-2.54,1.37-5.97,1.83-10.3c0.45-4.33,0.78-9.75,0.97-16.26l0.36-13.93h29.51v47.67h6.03v13.07h-3.37v-9.76h-40.35v9.76
						H576.81z M584.71,548.98h29.44v-44.37h-22.47l-0.29,10.99c-0.14,6.89-0.48,12.61-1,17.16c-0.53,4.55-1.26,8.13-2.19,10.73
						C587.26,546.09,586.1,547.93,584.71,548.98z"/>
					<path class="st24" d="M643.15,552.28v-3.16h3.23c0.96,0,1.7-0.32,2.23-0.97c0.53-0.65,1.12-1.59,1.8-2.83l2.51-5.3
						l-22.18-38.72h4.09l19.82,34.99l16.37-34.99h3.88l-21.61,45.81c-0.91,1.82-1.78,3.13-2.62,3.94c-0.84,0.81-2.05,1.22-3.63,1.22
						H643.15z"/>
					<path class="st24" d="M681.35,526.36c0-3.06,0.54-6.09,1.62-9.08c1.08-2.99,2.64-5.72,4.7-8.18c2.06-2.46,4.58-4.44,7.57-5.92
						c2.99-1.48,6.4-2.23,10.23-2.23c4.55,0,8.42,1.04,11.63,3.12c3.21,2.08,5.6,4.75,7.18,8.01l-3.01,1.72
						c-1.2-2.34-2.67-4.21-4.42-5.6c-1.75-1.39-3.62-2.38-5.64-2.98c-2.01-0.6-4.02-0.9-6.03-0.9c-3.21,0-6.07,0.65-8.58,1.94
						c-2.51,1.29-4.63,3.01-6.35,5.17s-3.03,4.55-3.91,7.18c-0.89,2.63-1.33,5.29-1.33,7.97c0,3.01,0.53,5.88,1.58,8.58
						c1.05,2.7,2.5,5.11,4.34,7.22c1.84,2.11,4,3.78,6.46,5.03c2.46,1.25,5.13,1.87,8.01,1.87c2.06,0,4.15-0.35,6.28-1.04
						c2.13-0.69,4.13-1.77,6-3.23c1.87-1.46,3.37-3.36,4.52-5.71l3.16,1.51c-1.1,2.54-2.75,4.69-4.95,6.46
						c-2.2,1.77-4.64,3.11-7.32,4.02c-2.68,0.91-5.34,1.36-7.97,1.36c-3.45,0-6.63-0.75-9.55-2.26c-2.92-1.51-5.45-3.52-7.57-6.03
						c-2.13-2.51-3.77-5.34-4.92-8.47C681.92,532.74,681.35,529.57,681.35,526.36z"/>
					<path class="st24" d="M737.99,552.28V501.3h3.66v20.25h13.57c3.68,0,6.72,0.65,9.12,1.94c2.39,1.29,4.19,3.09,5.38,5.38
						c1.2,2.3,1.8,4.98,1.8,8.04c0,2.78-0.59,5.33-1.76,7.65c-1.17,2.32-2.94,4.19-5.31,5.6c-2.37,1.41-5.33,2.12-8.87,2.12H737.99z
						 M741.66,549.12h13.5c3.02,0,5.46-0.59,7.32-1.76c1.87-1.17,3.22-2.69,4.06-4.56c0.84-1.87,1.26-3.83,1.26-5.89
						c0-2.11-0.37-4.09-1.11-5.96c-0.74-1.87-2.05-3.37-3.91-4.52c-1.87-1.15-4.45-1.72-7.75-1.72h-13.35V549.12z M780.71,552.28
						v-50.9h3.66v50.9H780.71z"/>
				</g>
			</g>
			<g>
				<path class="st24" d="M442.87,588.88v-9.2h1.21v3.93h1.38l3.1-3.93h1.38l-3.53,4.47l3.97,4.73h-1.42l-3.51-4.15h-1.38v4.15
					H442.87z"/>
				<path class="st24" d="M452.2,588.88v-1.1c0.32,0,0.6-0.08,0.85-0.25c0.25-0.17,0.47-0.46,0.66-0.87
					c0.2-0.41,0.35-0.97,0.47-1.69c0.12-0.72,0.2-1.63,0.23-2.74l0.11-2.54h5.99v9.14h-1.21v-8.06h-3.72l-0.04,1.58
					c-0.05,1.26-0.15,2.32-0.3,3.16c-0.15,0.85-0.37,1.52-0.65,2.01c-0.28,0.49-0.62,0.84-1.02,1.05
					C453.18,588.77,452.72,588.88,452.2,588.88z"/>
				<path class="st24" d="M464.15,588.88v-9.18h1.21v7.56l5.62-7.57h1.08v9.2h-1.21v-7.43l-5.53,7.43H464.15z"/>
				<path class="st24" d="M475.67,588.88v-9.2h1.21v3.95h5.28v-3.95h1.21v9.2h-1.21v-4.16h-5.28v4.16H475.67z"/>
				<path class="st24" d="M486.99,588.88v-9.18h1.21v7.56l5.62-7.57h1.08v9.2h-1.21v-7.43l-5.53,7.43H486.99z"/>
				<path class="st24" d="M498.51,588.88v-9.2h1.21v3.93h1.38l3.1-3.93h1.38l-3.53,4.47l3.97,4.73h-1.42l-3.51-4.15h-1.38v4.15
					H498.51z"/>
				<path class="st24" d="M507.95,586.24c0-0.57,0.17-1.07,0.5-1.49c0.33-0.42,0.79-0.74,1.37-0.97s1.26-0.34,2.03-0.34
					c0.45,0,0.92,0.04,1.4,0.11c0.48,0.07,0.92,0.18,1.29,0.32v-0.78c0-0.78-0.23-1.39-0.69-1.85c-0.46-0.46-1.1-0.69-1.91-0.69
					c-0.5,0-0.98,0.09-1.46,0.27c-0.48,0.18-0.98,0.45-1.5,0.81l-0.46-0.85c0.6-0.41,1.19-0.72,1.77-0.93s1.17-0.31,1.77-0.31
					c1.13,0,2.03,0.32,2.69,0.97c0.66,0.65,0.99,1.54,0.99,2.68v4.24c0,0.17,0.04,0.29,0.11,0.36s0.18,0.12,0.34,0.13v0.96
					c-0.13,0.01-0.24,0.02-0.34,0.04c-0.09,0.01-0.17,0.01-0.21,0c-0.29-0.01-0.52-0.11-0.67-0.28c-0.15-0.18-0.24-0.37-0.25-0.57
					l-0.02-0.67c-0.41,0.53-0.95,0.94-1.61,1.23c-0.66,0.29-1.33,0.43-2.02,0.43c-0.59,0-1.13-0.13-1.6-0.38s-0.85-0.59-1.12-1.02
					C508.09,587.23,507.95,586.75,507.95,586.24z M514.14,586.94c0.13-0.16,0.23-0.32,0.3-0.47c0.07-0.15,0.11-0.29,0.11-0.4v-1.33
					c-0.4-0.15-0.82-0.27-1.25-0.35c-0.43-0.08-0.87-0.12-1.3-0.12c-0.86,0-1.56,0.17-2.09,0.51c-0.53,0.34-0.8,0.8-0.8,1.39
					c0,0.34,0.09,0.66,0.27,0.96c0.18,0.3,0.44,0.54,0.78,0.74c0.34,0.19,0.74,0.29,1.21,0.29c0.58,0,1.12-0.11,1.62-0.33
					C513.48,587.58,513.87,587.29,514.14,586.94z"/>
				<path class="st24" d="M524.84,588.88v-9.2h1.24l3.67,6.34l3.69-6.34h1.19v9.2h-1.15v-7.4l-3.33,5.75h-0.78l-3.37-5.75v7.4
					H524.84z"/>
				<path class="st24" d="M542.26,589.06c-0.66,0-1.28-0.13-1.84-0.38c-0.57-0.25-1.06-0.6-1.47-1.04
					c-0.41-0.44-0.74-0.95-0.97-1.53c-0.23-0.58-0.35-1.2-0.35-1.85c0-0.86,0.2-1.64,0.59-2.36c0.4-0.72,0.94-1.29,1.64-1.71
					c0.7-0.43,1.49-0.64,2.38-0.64c0.91,0,1.7,0.22,2.38,0.65c0.68,0.43,1.21,1.01,1.6,1.72c0.39,0.71,0.58,1.49,0.58,2.33
					c0,0.09,0,0.18,0,0.27c0,0.09-0.01,0.16-0.02,0.2h-7.9c0.06,0.66,0.25,1.24,0.56,1.75c0.31,0.51,0.72,0.92,1.22,1.22
					c0.5,0.3,1.05,0.45,1.64,0.45c0.6,0,1.17-0.15,1.71-0.46c0.54-0.31,0.91-0.71,1.13-1.21l1.04,0.28
					c-0.19,0.44-0.48,0.83-0.87,1.19c-0.39,0.35-0.85,0.63-1.37,0.82C543.43,588.96,542.86,589.06,542.26,589.06z M538.86,583.85
					h6.82c-0.05-0.67-0.23-1.25-0.54-1.75c-0.31-0.5-0.72-0.9-1.22-1.18c-0.5-0.29-1.05-0.43-1.66-0.43s-1.15,0.14-1.65,0.43
					s-0.9,0.68-1.21,1.19C539.09,582.61,538.91,583.19,538.86,583.85z"/>
				<path class="st24" d="M548.64,591.02v-3.23h0.16c0.27,0,0.52-0.08,0.74-0.25c0.22-0.16,0.42-0.45,0.6-0.86
					c0.18-0.41,0.32-0.98,0.42-1.7c0.11-0.72,0.18-1.64,0.21-2.74l0.09-2.56h6.01v8.12h1.24v3.23h-1.08v-2.14h-7.34v2.14H548.64z
					 M550.62,587.8h5.05v-7.04h-3.72l-0.05,1.59c-0.04,1.09-0.11,2.01-0.22,2.74c-0.11,0.73-0.25,1.32-0.43,1.75
					C551.08,587.27,550.87,587.59,550.62,587.8z"/>
				<path class="st24" d="M560.92,588.88v-9.18h1.21v7.56l5.62-7.57h1.08v9.2h-1.21v-7.43l-5.53,7.43H560.92z"/>
				<path class="st24" d="M579.81,591.02v-2.14h-7.37v-9.2h1.21v8.13h4.78v-8.13h1.21v8.13h1.26v3.21H579.81z"/>
				<path class="st24" d="M583.69,588.88v-9.18h1.21v7.56l5.62-7.57h1.08v9.2h-1.21v-7.43l-5.53,7.43H583.69z"/>
				<path class="st24" d="M595.21,588.88v-9.2h1.21v3.95h5.28v-3.95h1.21v9.2h-1.21v-4.16h-5.28v4.16H595.21z"/>
				<path class="st24" d="M610.56,589.06c-0.67,0-1.29-0.13-1.85-0.38c-0.56-0.25-1.05-0.6-1.47-1.05
					c-0.42-0.45-0.75-0.96-0.97-1.53c-0.23-0.58-0.35-1.19-0.35-1.83c0-0.87,0.19-1.66,0.58-2.38c0.39-0.72,0.93-1.29,1.63-1.71
					s1.5-0.63,2.41-0.63c0.86,0,1.62,0.2,2.29,0.59c0.66,0.4,1.15,0.93,1.47,1.6l-1.17,0.37c-0.26-0.47-0.62-0.84-1.09-1.11
					s-0.98-0.4-1.55-0.4c-0.61,0-1.17,0.16-1.68,0.47c-0.51,0.32-0.91,0.75-1.21,1.3c-0.3,0.55-0.45,1.18-0.45,1.88
					c0,0.69,0.15,1.32,0.46,1.88c0.31,0.56,0.71,1.01,1.22,1.35c0.51,0.33,1.07,0.5,1.68,0.5c0.4,0,0.79-0.07,1.16-0.21
					s0.7-0.33,0.97-0.58c0.28-0.24,0.46-0.5,0.56-0.79l1.19,0.35c-0.17,0.44-0.44,0.83-0.82,1.18s-0.83,0.62-1.35,0.81
					C611.7,588.96,611.15,589.06,610.56,589.06z"/>
				<path class="st24" d="M617.25,588.88v-9.2h1.21v3.93h1.38l3.1-3.93h1.38l-3.53,4.47l3.97,4.73h-1.42l-3.51-4.15h-1.38v4.15
					H617.25z"/>
				<path class="st24" d="M630.93,589.06c-0.66,0-1.27-0.13-1.83-0.38c-0.56-0.25-1.04-0.6-1.45-1.04
					c-0.41-0.44-0.72-0.95-0.95-1.52c-0.22-0.57-0.34-1.17-0.34-1.81c0-0.66,0.11-1.27,0.34-1.84c0.22-0.57,0.54-1.08,0.96-1.52
					c0.41-0.44,0.9-0.79,1.46-1.04c0.56-0.25,1.17-0.38,1.83-0.38c0.66,0,1.27,0.13,1.83,0.38c0.55,0.25,1.04,0.6,1.45,1.04
					c0.41,0.44,0.73,0.95,0.96,1.52c0.22,0.57,0.34,1.18,0.34,1.84c0,0.63-0.11,1.24-0.34,1.81c-0.22,0.57-0.54,1.08-0.95,1.52
					c-0.41,0.44-0.89,0.79-1.45,1.04C632.23,588.93,631.61,589.06,630.93,589.06z M627.59,584.33c0,0.68,0.15,1.3,0.45,1.86
					c0.3,0.56,0.71,1,1.21,1.32c0.51,0.32,1.07,0.48,1.68,0.48s1.18-0.16,1.68-0.49c0.51-0.33,0.92-0.78,1.22-1.35
					c0.31-0.57,0.46-1.19,0.46-1.86c0-0.68-0.15-1.3-0.46-1.86c-0.31-0.56-0.71-1.01-1.22-1.34c-0.51-0.33-1.07-0.49-1.68-0.49
					s-1.17,0.17-1.67,0.51c-0.5,0.34-0.91,0.79-1.21,1.35C627.74,583.02,627.59,583.64,627.59,584.33z"/>
				<path class="st24" d="M638.52,588.88v-9.18h1.21v7.56l5.62-7.57h1.08v9.2h-1.21v-7.43l-5.53,7.43H638.52z M642.49,578.48
					c-0.8,0-1.42-0.19-1.86-0.57c-0.44-0.38-0.66-0.86-0.66-1.44h0.89c0,0.35,0.13,0.65,0.4,0.89c0.27,0.24,0.68,0.35,1.23,0.35
					c0.54,0,0.94-0.11,1.2-0.34c0.25-0.22,0.4-0.53,0.43-0.9h0.87c0,0.58-0.22,1.06-0.66,1.44
					C643.89,578.29,643.28,578.48,642.49,578.48z"/>
				<path class="st24" d="M655.55,588.88v-9.2h1.21v3.93h1.38l3.1-3.93h1.38l-3.53,4.47l3.97,4.73h-1.42l-3.51-4.15h-1.38v4.15
					H655.55z"/>
				<path class="st24" d="M669.23,589.06c-0.66,0-1.27-0.13-1.83-0.38c-0.56-0.25-1.04-0.6-1.45-1.04
					c-0.41-0.44-0.72-0.95-0.95-1.52c-0.22-0.57-0.34-1.17-0.34-1.81c0-0.66,0.11-1.27,0.34-1.84c0.22-0.57,0.54-1.08,0.96-1.52
					c0.41-0.44,0.9-0.79,1.46-1.04c0.56-0.25,1.17-0.38,1.83-0.38c0.66,0,1.27,0.13,1.83,0.38c0.55,0.25,1.04,0.6,1.45,1.04
					c0.41,0.44,0.73,0.95,0.96,1.52c0.22,0.57,0.34,1.18,0.34,1.84c0,0.63-0.11,1.24-0.34,1.81c-0.22,0.57-0.54,1.08-0.95,1.52
					c-0.41,0.44-0.89,0.79-1.45,1.04C670.52,588.93,669.9,589.06,669.23,589.06z M665.88,584.33c0,0.68,0.15,1.3,0.45,1.86
					c0.3,0.56,0.71,1,1.21,1.32c0.51,0.32,1.07,0.48,1.68,0.48s1.18-0.16,1.68-0.49c0.51-0.33,0.92-0.78,1.22-1.35
					c0.31-0.57,0.46-1.19,0.46-1.86c0-0.68-0.15-1.3-0.46-1.86c-0.31-0.56-0.71-1.01-1.22-1.34c-0.51-0.33-1.07-0.49-1.68-0.49
					s-1.17,0.17-1.67,0.51c-0.5,0.34-0.91,0.79-1.21,1.35C666.03,583.02,665.88,583.64,665.88,584.33z"/>
				<path class="st24" d="M680.84,589.06c-0.67,0-1.29-0.13-1.85-0.38c-0.56-0.25-1.05-0.6-1.47-1.05
					c-0.42-0.45-0.75-0.96-0.97-1.53c-0.23-0.58-0.35-1.19-0.35-1.83c0-0.87,0.19-1.66,0.58-2.38c0.39-0.72,0.93-1.29,1.63-1.71
					s1.5-0.63,2.41-0.63c0.86,0,1.62,0.2,2.29,0.59c0.66,0.4,1.15,0.93,1.47,1.6l-1.17,0.37c-0.26-0.47-0.62-0.84-1.09-1.11
					s-0.98-0.4-1.55-0.4c-0.61,0-1.17,0.16-1.68,0.47c-0.51,0.32-0.91,0.75-1.21,1.3c-0.3,0.55-0.45,1.18-0.45,1.88
					c0,0.69,0.15,1.32,0.46,1.88c0.31,0.56,0.71,1.01,1.22,1.35c0.51,0.33,1.07,0.5,1.68,0.5c0.4,0,0.79-0.07,1.16-0.21
					s0.7-0.33,0.97-0.58c0.28-0.24,0.46-0.5,0.56-0.79l1.19,0.35c-0.17,0.44-0.44,0.83-0.82,1.18s-0.83,0.62-1.35,0.81
					C681.98,588.96,681.43,589.06,680.84,589.06z"/>
				<path class="st24" d="M687.54,588.88v-9.2h1.24l3.67,6.34l3.69-6.34h1.19v9.2h-1.15v-7.4l-3.33,5.75h-0.78l-3.37-5.75v7.4
					H687.54z"/>
				<path class="st24" d="M704.95,589.06c-0.66,0-1.28-0.13-1.84-0.38c-0.57-0.25-1.06-0.6-1.47-1.04
					c-0.41-0.44-0.74-0.95-0.97-1.53c-0.23-0.58-0.35-1.2-0.35-1.85c0-0.86,0.2-1.64,0.59-2.36c0.4-0.72,0.94-1.29,1.64-1.71
					c0.7-0.43,1.49-0.64,2.38-0.64c0.91,0,1.7,0.22,2.38,0.65c0.68,0.43,1.21,1.01,1.6,1.72c0.39,0.71,0.58,1.49,0.58,2.33
					c0,0.09,0,0.18,0,0.27c0,0.09-0.01,0.16-0.02,0.2h-7.9c0.06,0.66,0.25,1.24,0.56,1.75c0.31,0.51,0.72,0.92,1.22,1.22
					c0.5,0.3,1.05,0.45,1.64,0.45c0.6,0,1.17-0.15,1.71-0.46c0.54-0.31,0.91-0.71,1.13-1.21l1.04,0.28
					c-0.19,0.44-0.48,0.83-0.87,1.19c-0.39,0.35-0.85,0.63-1.37,0.82C706.12,588.96,705.56,589.06,704.95,589.06z M701.55,583.85
					h6.82c-0.05-0.67-0.23-1.25-0.54-1.75c-0.31-0.5-0.72-0.9-1.22-1.18c-0.5-0.29-1.05-0.43-1.66-0.43s-1.15,0.14-1.65,0.43
					s-0.9,0.68-1.21,1.19C701.78,582.61,701.6,583.19,701.55,583.85z"/>
				<path class="st24" d="M714.67,588.88v-8.12h-3.3v-1.08h7.8v1.08h-3.3v8.12H714.67z"/>
				<path class="st24" d="M725.74,589.06c-0.66,0-1.27-0.13-1.83-0.38c-0.56-0.25-1.04-0.6-1.45-1.04
					c-0.41-0.44-0.72-0.95-0.95-1.52c-0.22-0.57-0.34-1.17-0.34-1.81c0-0.66,0.11-1.27,0.34-1.84c0.22-0.57,0.54-1.08,0.96-1.52
					c0.41-0.44,0.9-0.79,1.46-1.04c0.56-0.25,1.17-0.38,1.83-0.38c0.66,0,1.27,0.13,1.83,0.38c0.55,0.25,1.04,0.6,1.45,1.04
					c0.41,0.44,0.73,0.95,0.96,1.52c0.22,0.57,0.34,1.18,0.34,1.84c0,0.63-0.11,1.24-0.34,1.81c-0.22,0.57-0.54,1.08-0.95,1.52
					c-0.41,0.44-0.89,0.79-1.45,1.04C727.03,588.93,726.41,589.06,725.74,589.06z M722.39,584.33c0,0.68,0.15,1.3,0.45,1.86
					c0.3,0.56,0.71,1,1.21,1.32c0.51,0.32,1.07,0.48,1.68,0.48s1.18-0.16,1.68-0.49c0.51-0.33,0.92-0.78,1.22-1.35
					c0.31-0.57,0.46-1.19,0.46-1.86c0-0.68-0.15-1.3-0.46-1.86c-0.31-0.56-0.71-1.01-1.22-1.34c-0.51-0.33-1.07-0.49-1.68-0.49
					s-1.17,0.17-1.67,0.51c-0.5,0.34-0.91,0.79-1.21,1.35C722.54,583.02,722.39,583.64,722.39,584.33z"/>
				<path class="st24" d="M732.46,588.88v-1.1c0.32,0,0.6-0.08,0.85-0.25c0.25-0.17,0.47-0.46,0.66-0.87
					c0.2-0.41,0.35-0.97,0.47-1.69c0.12-0.72,0.2-1.63,0.23-2.74l0.11-2.54h5.99v9.14h-1.21v-8.06h-3.72l-0.04,1.58
					c-0.05,1.26-0.15,2.32-0.3,3.16c-0.15,0.85-0.37,1.52-0.65,2.01c-0.28,0.49-0.62,0.84-1.02,1.05
					C733.44,588.77,732.98,588.88,732.46,588.88z"/>
				<path class="st24" d="M748.35,589.06c-0.66,0-1.27-0.13-1.83-0.38c-0.56-0.25-1.04-0.6-1.45-1.04
					c-0.41-0.44-0.72-0.95-0.95-1.52c-0.22-0.57-0.34-1.17-0.34-1.81c0-0.66,0.11-1.27,0.34-1.84c0.22-0.57,0.54-1.08,0.96-1.52
					c0.41-0.44,0.9-0.79,1.46-1.04c0.56-0.25,1.17-0.38,1.83-0.38c0.66,0,1.27,0.13,1.83,0.38c0.55,0.25,1.04,0.6,1.45,1.04
					c0.41,0.44,0.73,0.95,0.96,1.52c0.22,0.57,0.34,1.18,0.34,1.84c0,0.63-0.11,1.24-0.34,1.81c-0.22,0.57-0.54,1.08-0.95,1.52
					c-0.41,0.44-0.89,0.79-1.45,1.04C749.64,588.93,749.03,589.06,748.35,589.06z M745,584.33c0,0.68,0.15,1.3,0.45,1.86
					c0.3,0.56,0.71,1,1.21,1.32c0.51,0.32,1.07,0.48,1.68,0.48s1.18-0.16,1.68-0.49c0.51-0.33,0.92-0.78,1.22-1.35
					c0.31-0.57,0.46-1.19,0.46-1.86c0-0.68-0.15-1.3-0.46-1.86c-0.31-0.56-0.71-1.01-1.22-1.34c-0.51-0.33-1.07-0.49-1.68-0.49
					s-1.17,0.17-1.67,0.51c-0.5,0.34-0.91,0.79-1.21,1.35C745.16,583.02,745,583.64,745,584.33z"/>
				<path class="st24" d="M755.94,588.88v-9.2h5.51v1.08h-4.31v8.12H755.94z"/>
				<path class="st24" d="M764.11,588.88v-9.18h1.21v7.56l5.62-7.57h1.08v9.2h-1.21v-7.43l-5.53,7.43H764.11z"/>
				<path class="st24" d="M775.62,588.88v-9.18h1.21v7.56l5.62-7.57h1.08v9.2h-1.21v-7.43l-5.53,7.43H775.62z"/>
			</g>
		</g>
	</g>
</g>
</svg>
