<svg width="7" height="12" viewBox="0 0 7 12" fill="none" xmlns="http://www.w3.org/2000/svg">
<path d="M0.869925 11.9917C0.801859 11.9917 0.733793 11.9591 0.683106 11.8957C0.587524 11.7739 0.594765 11.5837 0.697588 11.4722L5.90824 5.77395C6.01106 5.6608 6.17182 5.66938 6.26595 5.79109C6.36153 5.9128 6.35429 6.10309 6.25147 6.21452L1.04226 11.9128C0.993023 11.9659 0.932198 11.9917 0.869925 11.9917Z" fill="black"/>
<path d="M6.08038 6.29509C6.01955 6.29509 5.95728 6.26937 5.90804 6.21623L0.697384 0.51966C0.594561 0.406517 0.588769 0.217946 0.682902 0.0962316C0.778484 -0.0254827 0.937787 -0.0323399 1.04061 0.0790887L6.25126 5.77566C6.35409 5.8888 6.35988 6.07737 6.26575 6.19909C6.21651 6.26252 6.14844 6.29509 6.08038 6.29509Z" fill="black"/>
</svg>
