<svg width="25" height="26" viewBox="0 0 25 26" fill="none" xmlns="http://www.w3.org/2000/svg">
<g clip-path="url(#clip0_2416_144)">
<path d="M18.75 19.25V22.375H6.25V19.25H4.6875V22.375C4.6875 22.7894 4.85212 23.1868 5.14515 23.4799C5.43817 23.7729 5.8356 23.9375 6.25 23.9375H18.75C19.1644 23.9375 19.5618 23.7729 19.8549 23.4799C20.1479 23.1868 20.3125 22.7894 20.3125 22.375V19.25H18.75Z" fill="white"/>
<path d="M16.4062 16.9062L15.3016 15.8016L13.2812 17.8219V11.4375H11.7188V17.8219L9.69844 15.8016L8.59375 16.9062L12.5 20.8125L16.4062 16.9062Z" fill="white"/>
<path d="M21.875 3.625V2.0625H17.1875V9.875H18.75V6.75H21.0938V5.1875H18.75V3.625H21.875Z" fill="white"/>
<path d="M13.2812 9.875H10.1562V2.0625H13.2812C13.9026 2.06318 14.4984 2.31033 14.9378 2.74972C15.3772 3.18911 15.6243 3.78486 15.625 4.40625V7.53125C15.6243 8.15264 15.3772 8.74839 14.9378 9.18778C14.4984 9.62717 13.9026 9.87432 13.2812 9.875ZM11.7188 8.3125H13.2812C13.4884 8.31227 13.687 8.22989 13.8334 8.08343C13.9799 7.93696 14.0623 7.73838 14.0625 7.53125V4.40625C14.0623 4.19912 13.9799 4.00054 13.8334 3.85407C13.687 3.70761 13.4884 3.62523 13.2812 3.625H11.7188V8.3125Z" fill="white"/>
<path d="M7.03125 2.0625H3.125V9.875H4.6875V7.53125H7.03125C7.44548 7.53069 7.84258 7.36589 8.13549 7.07299C8.42839 6.78008 8.59319 6.38298 8.59375 5.96875V3.625C8.59327 3.21075 8.4285 2.81359 8.13558 2.52067C7.84266 2.22775 7.4455 2.06298 7.03125 2.0625ZM4.6875 5.96875V3.625H7.03125L7.03203 5.96875H4.6875Z" fill="white"/>
</g>
<defs>
<clipPath id="clip0_2416_144">
<rect width="25" height="25" fill="white" transform="translate(0 0.5)"/>
</clipPath>
</defs>
</svg>
