<svg width="8" height="12" viewBox="0 0 8 12" fill="none" xmlns="http://www.w3.org/2000/svg">
<path d="M7.44364 11.9917C7.5263 11.9917 7.60895 11.9591 7.6705 11.8957C7.78656 11.7739 7.77777 11.5837 7.65291 11.4722L1.32569 5.77395C1.20083 5.6608 1.00563 5.66938 0.89133 5.79109C0.775266 5.9128 0.784059 6.10309 0.908915 6.21452L7.23438 11.9128C7.29417 11.9659 7.36803 11.9917 7.44364 11.9917Z" fill="black"/>
<path d="M1.11614 6.29509C1.19 6.29509 1.26561 6.26937 1.3254 6.21623L7.65263 0.51966C7.77748 0.406517 7.78452 0.217946 7.67021 0.0962316C7.55415 -0.0254827 7.36071 -0.0323399 7.23585 0.0790887L0.90863 5.77566C0.783774 5.8888 0.77674 6.07737 0.891045 6.19909C0.950835 6.26252 1.03349 6.29509 1.11614 6.29509Z" fill="black"/>
</svg>
