<svg width="32" height="32" viewBox="0 0 32 32" fill="none" xmlns="http://www.w3.org/2000/svg">
<path d="M24.1902 27.11C23.9829 27.1116 23.7802 27.0487 23.6102 26.93L14.0002 20.19C13.8813 20.1062 13.7822 19.9975 13.7096 19.8714C13.6371 19.7453 13.5929 19.6049 13.5802 19.46C13.5667 19.3135 13.5857 19.1659 13.6359 19.0276C13.686 18.8893 13.766 18.7638 13.8702 18.66L16.4902 16L12.0002 18.81L14.0002 23.4L14.8802 22.52C15.0672 22.3317 15.3213 22.2254 15.5867 22.2244C15.852 22.2235 16.1069 22.328 16.2952 22.515C16.4835 22.702 16.5898 22.9561 16.5908 23.2215C16.5917 23.4868 16.4872 23.7417 16.3002 23.93L14.3002 25.85C14.1849 25.9665 14.0428 26.0528 13.8863 26.1014C13.7298 26.1501 13.5637 26.1595 13.4027 26.1289C13.2417 26.0983 13.0907 26.0285 12.963 25.9259C12.8352 25.8232 12.7347 25.6907 12.6702 25.54L9.78022 18.8C9.6877 18.5796 9.67717 18.3334 9.75055 18.1059C9.82393 17.8784 9.97636 17.6848 10.1802 17.56L22.7002 9.85C22.909 9.72148 23.1578 9.67414 23.3992 9.717C23.6406 9.75985 23.8579 9.88991 24.0097 10.0825C24.1615 10.275 24.2373 10.5166 24.2226 10.7613C24.208 11.0061 24.1039 11.2369 23.9302 11.41L16.1102 19.23L23.5502 24.45L27.5502 7.45L5.78022 15.55L8.19022 16.55C8.3196 16.5934 8.43872 16.6629 8.54025 16.7541C8.64178 16.8453 8.72356 16.9563 8.78057 17.0803C8.83757 17.2043 8.86859 17.3387 8.87171 17.4751C8.87483 17.6116 8.84998 17.7472 8.79871 17.8737C8.74743 18.0002 8.67081 18.1148 8.57355 18.2106C8.4763 18.3063 8.36048 18.3812 8.23321 18.4305C8.10595 18.4798 7.96994 18.5025 7.83356 18.4973C7.69718 18.492 7.56332 18.4589 7.44022 18.4L2.63022 16.45C2.44048 16.378 2.27714 16.25 2.16187 16.083C2.0466 15.916 1.98486 15.7179 1.98486 15.515C1.98486 15.3121 2.0466 15.114 2.16187 14.947C2.27714 14.78 2.44048 14.652 2.63022 14.58L28.6502 5C28.8186 4.93924 29.0003 4.92482 29.1762 4.95825C29.3521 4.99167 29.5158 5.07171 29.6502 5.19C29.7892 5.31176 29.8918 5.46967 29.9465 5.64619C30.0013 5.82271 30.006 6.01095 29.9602 6.19L25.1602 26.34C25.1232 26.5002 25.0473 26.6488 24.9391 26.7726C24.831 26.8965 24.694 26.9917 24.5402 27.05C24.4277 27.0894 24.3094 27.1096 24.1902 27.11Z" fill="white"/>
</svg>
