<svg width="26" height="28" viewBox="0 0 26 28" fill="none" xmlns="http://www.w3.org/2000/svg">
<path fill-rule="evenodd" clip-rule="evenodd" d="M21.1303 5.60238C18.9152 3.38472 15.9695 2.16291 12.8309 2.16162C6.36419 2.16162 1.10092 7.42446 1.09839 13.8932C1.09749 15.9611 1.63775 17.9794 2.66449 19.7586L1 25.8383L7.21958 24.2068C8.93322 25.1415 10.8626 25.6342 12.8263 25.6349H12.831C12.8314 25.6349 12.8307 25.6349 12.8311 25.6349C19.2972 25.6349 24.5608 20.3715 24.5635 13.9026C24.5647 10.7676 23.3454 7.81994 21.1303 5.60238ZM12.831 23.6534H12.827C11.0773 23.6528 9.36103 23.1826 7.8638 22.2942L7.50776 22.0828L3.81697 23.051L4.80214 19.4525L4.57025 19.0835C3.59413 17.5309 3.07859 15.7364 3.07935 13.8939C3.08145 8.51731 7.45608 4.14315 12.8349 4.14315C15.4395 4.14396 17.888 5.15966 19.7291 7.00289C21.5702 8.84611 22.5836 11.2962 22.5825 13.9018C22.5803 19.2788 18.2058 23.6534 12.831 23.6534Z" fill="white"/>
<path fill-rule="evenodd" clip-rule="evenodd" d="M18.1796 16.3499C17.8865 16.2031 16.4452 15.4941 16.1765 15.3961C15.9078 15.2983 15.7123 15.2494 15.5169 15.5429C15.3215 15.8363 14.7597 16.4967 14.5887 16.6923C14.4177 16.8879 14.2466 16.9125 13.9535 16.7656C13.6604 16.6189 12.7158 16.3094 11.5961 15.3107C10.7246 14.5333 10.1363 13.5733 9.96519 13.2798C9.79422 12.9864 9.947 12.8277 10.0938 12.6815C10.2256 12.5501 10.387 12.3391 10.5335 12.1679C10.6801 11.9968 10.7289 11.8744 10.8267 11.6789C10.9244 11.4832 10.8756 11.312 10.8022 11.1653C10.7289 11.0186 10.1427 9.57566 9.89842 8.98859C9.66039 8.41704 9.41874 8.49448 9.23877 8.48538C9.06803 8.47686 8.87234 8.4751 8.67693 8.4751C8.48153 8.4751 8.16387 8.54849 7.89522 8.8419C7.62652 9.13542 6.86914 9.8447 6.86914 11.2875C6.86914 12.7305 7.9196 14.1245 8.06619 14.3201C8.21273 14.5158 10.1334 17.4767 13.0741 18.7466C13.7735 19.0486 14.3196 19.229 14.7453 19.3641C15.4476 19.5872 16.0867 19.5557 16.5918 19.4802C17.155 19.3961 18.3262 18.7711 18.5705 18.0864C18.8148 17.4015 18.8148 16.8145 18.7415 16.6923C18.6682 16.57 18.4728 16.4967 18.1796 16.3499Z" fill="white"/>
</svg>
