<svg width="27" height="27" viewBox="0 0 27 27" fill="none" xmlns="http://www.w3.org/2000/svg">
<path fill-rule="evenodd" clip-rule="evenodd" d="M22.0884 5.10244C19.8732 2.88479 16.9275 1.66297 13.7889 1.66168C7.32219 1.66168 2.05892 6.92452 2.0564 13.3933C2.0555 15.4611 2.59575 17.4795 3.6225 19.2587L1.95801 25.3384L8.17758 23.7069C9.89122 24.6416 11.8207 25.1342 13.7843 25.1349H13.789C13.7894 25.1349 13.7888 25.1349 13.7891 25.1349C20.2552 25.1349 25.5188 19.8715 25.5215 13.4027C25.5227 10.2677 24.3034 7.32 22.0884 5.10244ZM13.789 23.1535H13.785C12.0353 23.1528 10.319 22.6827 8.82181 21.7942L8.46576 21.5829L4.77497 22.551L5.76014 18.9526L5.52826 18.5836C4.55214 17.031 4.0366 15.2365 4.03736 13.3939C4.03946 8.01737 8.41409 3.64321 13.7929 3.64321C16.3976 3.64402 18.846 4.65972 20.6871 6.50295C22.5282 8.34617 23.5416 10.7962 23.5405 13.4018C23.5383 18.7788 19.1638 23.1535 13.789 23.1535Z" fill="white"/>
<path fill-rule="evenodd" clip-rule="evenodd" d="M19.1381 15.8501C18.845 15.7033 17.4037 14.9942 17.135 14.8963C16.8663 14.7985 16.6708 14.7496 16.4754 15.043C16.28 15.3365 15.7182 15.9968 15.5472 16.1925C15.3762 16.3881 15.2051 16.4127 14.912 16.2658C14.6189 16.1191 13.6743 15.8096 12.5546 14.8108C11.6831 14.0334 11.0948 13.0735 10.9237 12.78C10.7527 12.4865 10.9055 12.3279 11.0523 12.1817C11.1841 12.0503 11.3455 11.8393 11.492 11.6681C11.6386 11.497 11.6874 11.3746 11.7852 11.1791C11.8829 10.9834 11.8341 10.8122 11.7607 10.6655C11.6874 10.5188 11.1012 9.07584 10.8569 8.48876C10.6189 7.91722 10.3772 7.99466 10.1973 7.98556C10.0265 7.97703 9.83084 7.97527 9.63543 7.97527C9.44003 7.97527 9.12237 8.04866 8.85372 8.34208C8.58502 8.63559 7.82764 9.34487 7.82764 10.7877C7.82764 12.2307 8.8781 13.6246 9.02469 13.8202C9.17123 14.016 11.0918 16.9769 14.0326 18.2467C14.732 18.5488 15.2781 18.7292 15.7038 18.8642C16.4061 19.0874 17.0452 19.0559 17.5503 18.9804C18.1135 18.8962 19.2847 18.2713 19.529 17.5866C19.7733 16.9017 19.7733 16.3147 19.7 16.1925C19.6267 16.0702 19.4313 15.9968 19.1381 15.8501Z" fill="white"/>
</svg>
