<svg width="131" height="114" viewBox="0 0 131 114" fill="none" xmlns="http://www.w3.org/2000/svg">
<g clip-path="url(#clip0_2471_188)">
<path d="M131 92.0011C130.589 94.8528 130.179 97.7045 129.734 100.522C129.141 104.143 128.525 107.776 127.886 111.42C127.613 113.015 126.518 113.864 124.841 113.898C120.633 113.898 116.357 109.349 116.665 104.936C116.868 102.32 117.257 99.7224 117.828 97.1613C121.591 79.5419 111.464 63.2125 98.532 56.3888C98.1883 56.2254 97.8666 56.0202 97.5741 55.7778C97.2197 55.4977 96.9746 55.1039 96.881 54.6641C96.7873 54.2242 96.8509 53.7658 97.0609 53.3674C97.1329 53.1637 97.2459 52.9765 97.3929 52.8174C97.54 52.6582 97.718 52.5303 97.9164 52.4415C98.1147 52.3526 98.3291 52.3046 98.5467 52.3004C98.7642 52.2961 98.9804 52.3357 99.1821 52.4168C100.243 52.7172 101.256 53.1629 102.193 53.7408C116.63 63.2804 123.747 76.5205 122.481 93.8683C122.241 97.0934 121.42 100.285 120.873 103.51C120.496 105.547 120.839 107.38 122.549 108.772C123.018 109.081 123.509 109.353 124.02 109.587C124.739 105.207 125.492 100.998 126.176 96.7879C127.168 90.5074 127.271 84.2268 125.628 78.0142C124.465 73.6348 122.823 69.4252 120.36 65.589C120.052 65.1476 119.778 64.5026 119.881 64.0273C119.983 63.552 120.325 62.262 120.907 61.9225C121.489 61.583 122.549 62.0583 122.994 62.5336C124.051 63.6889 124.949 64.979 125.663 66.3698C128.411 72.0149 130.148 78.0921 130.794 84.3287C130.847 84.604 130.915 84.8761 131 85.1435V92.0011Z" fill="white"/>
<path d="M60.0434 109.553C62.6093 108.636 63.7384 106.633 63.3278 104.121C62.8488 101.066 62.3014 98.0101 61.8224 94.9887C60.2487 84.9059 62.7804 75.7397 68.1518 67.2525C72.074 61.0126 77.6164 55.9351 84.1975 52.5527C88.1661 50.4818 90.0478 47.1209 90.0136 42.7076C90.0136 41.9607 89.9794 41.2478 89.9794 40.5348C89.9794 38.8035 90.4926 38.0905 92.2374 37.8868C93.9823 37.6831 96.1035 37.7171 98.2246 37.6152C98.2246 34.6617 98.2246 31.6742 98.1904 28.6867C98.1562 28.3133 97.7457 27.8719 97.4035 27.6343C95.5903 26.2085 93.777 24.8166 91.8953 23.4926C91.26 23.0625 90.7469 22.4775 90.4054 21.7937C90.0639 21.11 89.9054 20.3505 89.9452 19.5884C89.9794 16.2275 89.9452 12.9005 89.9452 9.23407C89.6031 9.8112 89.3978 10.1846 89.1925 10.592C87.3676 14.383 86.3653 18.512 86.2502 22.7117C85.9765 28.9583 85.8739 35.2388 85.9765 41.4854C86.0107 45.1858 84.5738 47.5622 81.2894 49.2936C72.531 53.9446 65.7911 60.5986 61.5487 69.595C60.4882 71.8356 59.7697 74.246 58.8117 76.5545C58.2986 77.7088 57.238 78.0482 56.1774 77.539C55.1168 77.0298 54.9799 75.9774 55.2878 74.8571C56.9844 68.4406 60.1581 62.5023 64.5595 57.5092C68.8709 52.5196 74.0946 48.3844 79.9551 45.3216C81.2894 44.6087 81.871 43.726 81.871 42.1983C81.8026 36.7665 81.7684 31.3687 81.8368 25.9369C81.9395 16.8725 84.608 8.62299 90.082 1.324C91.4163 -0.441334 92.6822 -0.441334 94.0849 1.324C99.08 7.67242 101.612 14.9375 102.022 22.9154C102.33 29.2638 102.33 35.6123 102.296 41.9607C102.262 43.6581 102.946 44.6426 104.314 45.4235C105.683 46.2043 107.941 47.4604 109.72 48.5807C110.636 49.1787 111.475 49.8855 112.218 50.6855C112.97 51.5342 112.902 52.5188 112.081 53.3335C111.26 54.1483 110.439 54.1144 109.515 53.5372C106.949 51.8737 104.349 50.2442 101.749 48.6486C99.1484 47.053 97.9167 44.9821 98.2589 41.9267H94.256C94.1533 43.081 94.0849 44.2013 93.9823 45.3216C93.5717 49.2597 91.5874 52.2472 88.4056 54.4878C86.045 56.0834 83.6501 57.6111 81.2894 59.2406C75.1654 63.5182 71.0598 69.3234 68.0834 76.4527L69.8282 75.5021C73.0442 74.1441 76.2944 72.888 79.4419 71.3943C81.7968 70.3067 84.0421 68.9994 86.1476 67.4902C88.7478 65.589 89.8768 62.7373 90.0478 59.5462C90.0821 59.0709 90.0478 58.4598 90.3215 58.2222C90.5952 57.9845 91.5874 57.1018 92.2374 57.1018C92.8875 57.1018 93.5717 57.7808 93.8796 58.324C94.1876 58.8672 94.1876 59.7499 94.0849 60.4288C93.5033 64.8761 91.9637 68.916 87.9609 71.3603C85.0186 73.1257 81.8368 74.5176 78.7577 76.0113C76.6707 76.9958 74.4811 77.7766 72.4626 78.8291C70.9497 79.6129 69.5272 80.5577 68.2202 81.6468C67.4451 82.2768 66.8129 83.0622 66.3648 83.9514C65.9167 84.8406 65.6629 85.8137 65.62 86.807C65.1753 91.8993 66.3385 96.8219 67.0912 101.778C67.3988 103.69 67.3988 105.638 67.0912 107.55C66.4754 110.741 62.9173 113.627 59.6328 113.966C57.888 114.17 56.6906 113.389 56.4169 111.658C55.3449 105.388 54.3071 99.0852 53.3035 92.7481C53.2622 92.5011 53.2394 92.2515 53.2351 92.0012C53.2213 91.737 53.2612 91.4728 53.3526 91.2243C53.444 90.9757 53.5849 90.748 53.7669 90.5548C53.9489 90.3615 54.1683 90.2066 54.412 90.0993C54.6557 89.992 54.9186 89.9345 55.1852 89.9303C56.4169 89.8285 57.0669 90.4735 57.2722 91.7975C58.1959 97.7046 59.1197 103.578 60.0434 109.553ZM94.1191 9.6754C94.1191 12.9005 94.1191 16.1596 94.1534 19.3848C94.1433 19.6275 94.2156 19.8665 94.3586 20.0637L98.0536 22.9494C97.761 18.2881 96.4164 13.7516 94.1191 9.6754Z" fill="white"/>
<path d="M42.7659 27.1591C38.6946 28.8565 34.7602 28.8904 30.9968 27.227C27.644 30.3842 28.7388 34.3901 28.5335 38.3961C29.9362 37.14 31.0994 36.0197 32.3311 35.0352C35.4444 32.523 38.9341 31.7761 42.7317 33.2698C48.3426 35.4765 50.7033 41.6552 47.8636 46.9172C47.0807 48.3139 46.0887 49.5845 44.9213 50.6856C39.7552 55.6421 34.4865 60.4628 29.252 65.3175C28.9846 65.5384 28.7761 65.8211 28.6449 66.1408C28.5136 66.4605 28.4636 66.8073 28.4993 67.1507C28.6361 69.9685 28.6019 72.8202 28.5677 75.6379C28.5335 76.7922 27.815 77.4032 26.7202 77.573C25.6254 77.7427 24.8728 77.1656 24.7017 76.1132C24.5412 75.0678 24.4497 74.0132 24.428 72.956C24.3938 72.0054 24.428 71.0548 24.428 69.9345C23.4358 70.7493 22.5805 71.5301 21.691 72.1751C16.314 76.1448 9.84573 78.3948 3.14776 78.6254C0.513394 78.7273 -0.239282 77.8785 0.0686309 75.2645C0.958158 67.626 4.03729 61.1078 9.85343 55.8797C14.5748 51.6361 19.1593 47.2567 23.778 42.9113C24.1825 42.4589 24.4234 41.8854 24.4622 41.2817C24.5306 38.1585 24.4622 35.0352 24.4964 31.9119C24.4449 30.5081 24.8269 29.1222 25.5912 27.9399C26.4465 26.6838 27.0624 25.2919 27.815 23.9679C28.5677 22.6439 29.2862 22.2025 30.9626 22.7797C31.9206 23.0852 32.8101 23.4247 33.7338 23.7981C34.7334 24.2326 35.8146 24.4513 36.9058 24.4396C37.997 24.4279 39.0733 24.1861 40.0631 23.7302L42.6633 22.6439C43.8607 22.1686 44.8529 22.542 45.5029 23.6284C46.632 25.5635 47.7268 27.5325 48.7531 29.5355C49.3348 30.6218 48.9926 31.7082 48.0347 32.2514C47.0767 32.7946 45.8793 32.5909 45.195 31.4366C44.5108 30.2823 43.6213 28.6528 42.7659 27.1591ZM4.37942 74.3139C4.51627 74.3818 4.58469 74.4497 4.68733 74.4158L5.57686 74.3479C11.6667 73.7707 16.8328 71.0888 21.2804 67.0828C28.6704 60.361 35.9234 53.5373 43.2107 46.7136C44.9898 45.0501 45.2977 41.9947 44.1344 39.6183C42.9712 37.2418 41.0211 36.1555 38.6946 36.6987C37.0222 37.1105 35.4586 37.8747 34.1102 38.9393C30.3468 42.1984 26.7887 45.6611 23.1621 49.09C18.8856 53.0959 14.5406 57.034 10.4008 61.2097C6.84272 64.8083 5.09788 69.3574 4.37942 74.3139Z" fill="white"/>
<path d="M36.6762 94.5813C41.3633 88.9458 44.7161 83.0047 44.9214 75.7737C45.0925 69.8326 44.9556 63.8576 44.9214 57.8826C44.9214 56.7963 44.9214 55.7439 46.1188 55.1667C47.3163 54.5896 48.3426 55.0309 48.7874 56.2531C48.944 56.6903 49.0362 57.1477 49.0611 57.6111C48.9927 63.9934 49.0611 70.4097 48.8216 76.7921C48.5821 83.7516 45.6741 89.7606 41.3975 95.1924C40.4053 96.4145 39.4132 97.6367 38.3868 98.7909C37.3604 99.9452 36.3682 100.013 35.5471 99.1644C33.3233 96.8559 30.9627 94.6152 29.7994 91.5259C29.7116 91.1994 29.703 90.8568 29.7744 90.5264C29.8458 90.1959 29.995 89.8869 30.21 89.6248C30.5863 89.1834 31.4758 88.9797 32.1259 89.0137C32.7759 89.0476 33.0496 89.5908 33.3575 89.9982C34.4523 91.458 35.5129 92.9517 36.6762 94.5813Z" fill="white"/>
</g>
<defs>
<clipPath id="clip0_2471_188">
<rect width="131" height="114" fill="white"/>
</clipPath>
</defs>
</svg>
