<svg width="124" height="90" viewBox="0 0 124 90" fill="none" xmlns="http://www.w3.org/2000/svg">
<g clip-path="url(#clip0_2471_179)">
<path d="M124 15.3779C123.353 16.3391 122.706 17.1464 121.574 16.6466C120.441 16.1468 120.344 15.0319 120.344 13.8017C120.377 10.7261 120.344 7.61202 120.344 4.42107H3.72032V45.9418H8.47587V23.9896C8.47587 20.7218 9.99635 18.9533 12.7462 18.9533C13.8137 18.9149 14.8489 18.8764 15.9165 18.9533C16.9841 19.0302 17.7605 19.9144 17.7282 21.1447C17.6958 22.3749 17.0488 23.1823 15.8518 23.2207C14.6548 23.2592 13.4579 23.2592 12.1638 23.2592V32.0631C12.9403 32.0631 13.749 32.1016 14.5254 32.0247C14.7519 32.0247 15.043 31.6787 15.1725 31.3711C15.4306 30.8216 15.8126 30.3686 16.2755 30.063C16.7384 29.7574 17.2639 29.6113 17.7929 29.6411H22.6131C23.0984 29.6411 23.713 29.718 24.0042 30.0255C24.9423 31.1404 26.0423 30.9482 27.1745 30.9482H97.6019C98.3136 30.9482 98.993 30.4869 99.7047 30.2177C102.369 29.3139 105.193 29.3139 107.857 30.2177C107.938 30.2411 108.014 30.2838 108.081 30.3433C108.148 30.4028 108.204 30.4778 108.245 30.5637C108.925 32.5629 110.38 32.14 111.771 32.0631V23.2592H25.7835C25.2542 23.2728 24.7248 23.2471 24.1983 23.1823C23.9858 23.1724 23.7771 23.1128 23.584 23.0069C23.3909 22.9011 23.2173 22.751 23.0731 22.5653C22.9288 22.3797 22.8168 22.162 22.7435 21.9248C22.6701 21.6877 22.6368 21.4356 22.6454 21.1831C22.6 20.6686 22.7275 20.1536 23.0002 19.7504C23.2729 19.3471 23.6687 19.0883 24.1012 19.0302C24.4961 18.9471 24.8981 18.9212 25.2982 18.9533H111.027C114.101 18.9533 115.524 20.6449 115.524 24.2972V45.9802H120.344V44.3655C120.344 38.0605 120.377 31.794 120.344 25.5274C120.344 24.2587 120.474 23.1438 121.574 22.6825C122.674 22.2212 123.418 23.0285 124 24.0281V47.0567C123.062 49.6325 121.38 50.6321 119.05 50.4014C118.339 50.3245 117.627 50.4014 116.883 50.4014C113.357 50.4014 112.257 49.2481 111.771 45.0575C111.027 45.0575 110.283 45.0191 109.507 45.096C109.223 45.1914 108.98 45.4112 108.828 45.7111C108.213 47.0182 107.242 47.5565 106.013 47.5565C104.784 47.5565 103.037 47.5949 101.549 47.518C100.999 47.518 100.287 47.4411 99.9635 47.0567C99.0577 46.0187 98.0548 46.1725 97.0196 46.1725H26.4628C25.7188 46.1725 24.9747 46.6722 24.263 46.9414C23.5513 47.2105 23.6483 47.3643 23.3572 47.3643C21.222 47.4027 19.0869 47.4027 16.9841 47.3258C16.7248 47.29 16.474 47.1934 16.2463 47.0416C16.0187 46.8899 15.8186 46.6859 15.6577 46.4416C14.9136 44.4424 13.5226 45.1344 12.1962 45.0575C12.1638 45.442 12.1315 45.7496 12.0991 46.0571C11.9374 48.4023 10.611 50.1323 8.63762 50.2861C6.94794 50.4463 5.25114 50.4719 3.55857 50.363C1.42343 50.2092 0 48.3254 0 45.788V4.6133C0 1.96059 1.55283 0.11522 3.78502 0.0383301H119.018C121.347 0.0383301 123.029 0.768787 124 3.34461V15.3779ZM25.5894 41.7897H98.3459V35.3309H25.5894V41.7897ZM21.772 43.1353V34.0238H18.5369V43.1353H21.772ZM102.196 34.0238V43.0968H105.463V34.0238H102.196ZM12.1638 40.6364H14.7519V36.4843H12.1638V40.6364ZM111.804 40.6748V36.4458H109.216V40.6748H111.804Z" fill="white"/>
<path d="M60.1721 77.5438V68.2017C60.1721 67.8172 60.1722 67.4328 60.2045 67.0483C60.3016 65.7796 61.0133 64.9338 61.9514 64.9338C62.8896 64.9338 63.7307 65.7796 63.7954 67.1252C63.8601 68.4708 63.8278 69.5088 63.8278 70.7006V86.54C63.8278 87.0013 63.8278 87.5011 63.7954 87.9625C63.666 89.2696 62.9867 90.0001 61.9838 90.0001C60.9809 90.0001 60.2692 89.2312 60.2045 87.8856C60.1398 85.848 60.1721 83.7719 60.1721 81.7344V77.5438Z" fill="white"/>
<path d="M43.7707 64.2803C43.3178 66.4332 42.8649 68.663 42.3796 70.8928C41.4738 75.2371 40.568 79.6199 39.6298 83.9642C39.522 84.6133 39.3016 85.2287 38.9828 85.7711C38.7395 86.1389 38.3918 86.3887 38.0047 86.4736C37.6176 86.5585 37.2177 86.4728 36.88 86.2324C36.0065 85.6558 35.7477 84.7331 35.9742 83.5413C36.977 78.9663 37.9152 74.3529 38.8857 69.7779C39.3386 67.7403 39.7268 65.7028 40.2121 63.6652C40.4709 62.4349 41.215 61.8198 42.2825 62.0505C43.3501 62.2811 43.6736 63.0885 43.7707 64.2803Z" fill="white"/>
<path d="M82.1383 62.012C83.1736 62.0504 83.6588 62.8962 83.9176 64.1264L87.4115 80.6963L87.9938 83.5028C88.285 84.9637 87.7674 86.117 86.6998 86.4246C85.6322 86.7322 84.7911 86.0017 84.5 84.5792C83.2706 78.8894 82.0736 73.161 80.8767 67.4712C80.6826 66.51 80.4238 65.5489 80.2944 64.5493C80.165 63.5498 80.8767 62.012 82.1383 62.012Z" fill="white"/>
<path d="M92.1993 58.2827C92.4581 58.6287 93.2022 59.0901 93.461 59.8205C95.5961 66.164 97.6666 72.5458 99.737 78.9277C100.158 80.2733 99.7046 81.4651 98.7341 81.888C97.7636 82.3109 96.7931 81.7727 96.3402 80.3887C94.2697 74.1349 92.2209 67.8555 90.1936 61.5505C89.6436 59.859 90.42 58.3212 92.1993 58.2827Z" fill="white"/>
<path d="M53.7345 66.4716C53.2168 71.5079 52.6992 76.3905 52.214 81.273C51.9875 83.1953 51.7934 85.0791 51.5993 87.0013C51.4052 88.9236 50.6611 89.2311 49.5612 89.1158C48.4613 89.0005 47.8466 87.9625 47.976 86.54C48.6878 79.7352 49.3995 72.9304 50.1435 66.1256C50.2729 64.78 51.114 64.088 52.1816 64.2418C52.6273 64.3177 53.0333 64.5881 53.3204 65.0004C53.6075 65.4126 53.7551 65.9371 53.7345 66.4716Z" fill="white"/>
<path d="M76.024 86.809C76.024 88.0777 75.3769 89.0004 74.4064 89.1157C73.4359 89.231 72.5624 88.4621 72.4007 87.0012C71.8184 81.6573 71.2684 76.3519 70.7185 71.008C70.5891 69.6625 70.4273 68.3553 70.2979 67.0097C70.1685 65.6642 70.7185 64.3955 71.8184 64.2417C72.9183 64.0879 73.7271 64.8568 73.8888 66.4331C74.6005 73.0841 75.3122 79.7351 75.9916 86.3861C76.017 86.5249 76.0278 86.667 76.024 86.809Z" fill="white"/>
<path d="M25.5889 82.0419C24.7801 82.0419 23.9067 80.8116 24.1655 79.4276C24.2894 78.8196 24.4627 78.2273 24.6831 77.6591C26.4947 72.0461 28.3171 66.4332 30.1503 60.8202C30.2443 60.506 30.3523 60.198 30.4739 59.8975C30.9915 58.5135 31.8973 58.0137 32.8678 58.475C33.8383 58.9364 34.2589 60.0513 33.8383 61.4737C33.4178 62.8962 32.5766 65.2798 31.962 67.2021L27.7888 80.0427C27.4652 81.0807 27.0123 81.965 25.5889 82.0419Z" fill="white"/>
</g>
<defs>
<clipPath id="clip0_2471_179">
<rect width="124" height="90" fill="white"/>
</clipPath>
</defs>
</svg>
