<svg width="110" height="110" viewBox="0 0 110 110" fill="none" xmlns="http://www.w3.org/2000/svg">
<g clip-path="url(#clip0_2471_171)">
<path d="M110 19.7678C109.254 21.145 108.049 21.4032 106.644 21.2597C105.812 21.145 105.325 21.3745 105.124 22.2639C104.923 23.1533 104.55 23.6411 104.12 24.6452C104.568 24.9664 104.999 25.3112 105.411 25.6781C106.673 26.8831 106.787 28.1742 105.812 29.1497C104.837 30.1252 103.604 29.9243 102.428 28.748C102.026 28.3463 101.653 27.8873 101.28 27.4856L98.3259 28.6619C98.1285 28.8277 98.0047 29.065 97.9817 29.3218C97.9243 29.9817 98.0104 30.6129 97.953 31.2728C97.9105 31.811 97.67 32.3143 97.2779 32.6853C96.8858 33.0563 96.37 33.2686 95.8304 33.2811C94.7118 33.2811 93.5645 32.3917 93.7366 31.2728C94.0234 29.2357 93.1342 28.289 91.3272 27.8873C90.9759 27.7496 90.6395 27.5766 90.3233 27.3709C89.893 27.8873 89.4341 28.5185 88.9178 29.0349C87.9426 29.953 86.6805 29.953 85.82 29.1497C84.9595 28.3463 84.9595 26.9979 85.9061 25.9937C86.3937 25.4773 86.9673 25.0182 87.4549 24.5592L86.0495 21.2597C85.3324 21.2597 84.5293 21.2884 83.7261 21.2311C83.4474 21.2236 83.1728 21.1613 82.9181 21.0477C82.6634 20.9341 82.4336 20.7714 82.2418 20.5689C82.05 20.3664 81.9 20.128 81.8004 19.8675C81.7007 19.607 81.6533 19.3294 81.661 19.0506C81.661 17.9029 82.5788 16.8414 83.7835 17.0135C85.5905 17.2431 86.5658 16.6119 86.91 14.8617C86.996 14.5174 87.2255 14.2305 87.6557 13.6567C87.0821 13.169 86.451 12.7673 85.9347 12.2509C84.9595 11.2467 84.9308 9.95562 85.7913 9.0949C86.6518 8.23418 87.9426 8.23418 88.9465 9.20966C89.4628 9.69741 89.9217 10.2712 90.3233 10.7303C91.3845 10.2999 92.3024 9.98431 93.1629 9.58264C93.2942 9.4952 93.4055 9.38098 93.4895 9.24748C93.5736 9.11398 93.6284 8.9642 93.6505 8.808C93.7366 8.20549 93.6505 7.60299 93.6792 7.00048C93.7009 6.45462 93.9293 5.93744 94.3181 5.55383C94.707 5.17021 95.2271 4.94889 95.7731 4.93476C96.9204 4.90607 98.0677 5.79548 97.8956 6.97179C97.6662 8.86538 98.3259 9.89824 100.162 10.2712C100.477 10.3286 100.735 10.5294 101.309 10.845C101.725 10.2653 102.185 9.71859 102.686 9.20966C103.718 8.23418 104.952 8.20549 105.841 9.0949C106.73 9.98431 106.673 11.218 105.697 12.2509C105.21 12.7673 104.665 13.2264 104.177 13.7141C104.521 14.4601 104.923 15.0913 105.066 15.7511C105.267 16.8701 105.898 17.0996 106.873 16.9561C107.849 16.8127 109.34 17.157 110 18.4768V19.7678ZM95.8591 13.5133C94.753 13.502 93.6683 13.819 92.7423 14.4243C91.8163 15.0296 91.0905 15.896 90.6568 16.9139C90.223 17.9318 90.1007 19.0555 90.3054 20.1429C90.5101 21.2303 91.0326 22.2325 91.8067 23.0229C92.5808 23.8133 93.5719 24.3563 94.6546 24.5833C95.7373 24.8103 96.8629 24.7111 97.8892 24.2982C98.9155 23.8853 99.7964 23.1773 100.42 22.2636C101.044 21.35 101.384 20.2718 101.395 19.1653C101.403 18.4306 101.265 17.7016 100.991 17.0199C100.717 16.3382 100.311 15.7172 99.7974 15.1924C99.2833 14.6675 98.671 14.2491 97.9952 13.961C97.3195 13.6729 96.5937 13.5208 95.8591 13.5133Z" fill="white"/>
<path d="M81.6321 0C83.7547 1.57799 83.5826 3.27074 81.2019 4.41836L73.773 7.91862C72.3962 8.54982 71.2202 8.20553 70.6465 7.0579C70.0728 5.91028 70.5604 4.70527 71.8799 4.07407L79.9972 0.229525L80.3414 0H81.6321Z" fill="white"/>
<path d="M45.8068 26.6249C45.8068 29.121 45.6347 31.4737 45.8355 33.7689C46.0936 36.4945 47.3843 38.8759 49.3061 40.8842C50.31 41.9458 50.5108 42.8065 49.9945 43.7533C49.4782 44.7001 48.589 44.987 47.1836 44.7861C43.1688 44.2538 39.4659 42.3359 36.7142 39.3636C36.6568 39.421 36.5421 39.4497 36.5421 39.5071C36.5708 42.2901 36.284 45.1304 36.6855 47.856C37.4026 52.7335 40.3283 56.0616 44.9463 57.8117C49.5643 59.5618 52.8915 62.5457 54.8993 67.0214C55.808 69.0127 56.2869 71.1732 56.3048 73.362C56.3048 81.8545 56.3622 90.3182 56.3048 98.8107C56.2897 101.763 55.1084 104.59 53.0183 106.676C50.9283 108.761 48.099 109.935 45.1471 109.943C35.8537 110 26.5795 110 17.3244 109.943C14.4615 109.959 11.7047 108.861 9.63792 106.879C7.57118 104.897 6.35699 102.189 6.25267 99.3271C6.05189 93.8472 6.16662 88.3673 6.16662 82.8873C6.16662 81.4815 7.0558 80.5634 8.28917 80.5347C9.52255 80.506 10.4404 81.4528 10.4404 82.9734C10.4595 88.0612 10.4595 93.1395 10.4404 98.2082C10.4404 101.106 11.5591 103.401 14.1405 104.75C15.1716 105.311 16.3227 105.616 17.4965 105.639C26.6464 105.696 35.825 105.696 44.975 105.668C48.9619 105.639 52.0023 102.598 52.0023 98.6385C52.031 90.3182 52.0597 81.9692 52.0023 73.6203C52.0043 71.0993 51.2324 68.6386 49.7909 66.5707C48.3494 64.5029 46.3079 62.9276 43.9424 62.0579C37.9763 59.7914 34.018 55.746 32.6125 49.4914C32.1823 47.4544 32.297 45.3026 32.2109 43.2082C32.1536 42.2901 32.1823 41.3433 32.1823 40.3678H16.9515C16.177 40.3678 15.8328 40.5973 15.5747 41.3146C13.017 48.3492 11.3968 55.6902 10.7559 63.1482C10.6412 64.5253 9.98148 65.386 8.86284 65.5582C8.38066 65.6237 7.89073 65.5192 7.47721 65.2627C7.06369 65.0061 6.75241 64.6135 6.59687 64.1523C6.46771 63.5588 6.43862 62.9479 6.51082 62.3448C7.12295 55.5811 8.5088 48.9099 10.6412 42.4622C10.8023 41.907 10.9938 41.361 11.2149 40.8268C12.7924 37.8143 12.1614 34.5436 12.2761 31.2728C9.43195 31.1679 6.6166 31.8744 4.15879 33.3099C3.79877 33.5509 3.42528 33.7713 3.04015 33.9698C1.72072 34.4575 0.171833 33.6542 0.0857836 32.2196C-0.172365 28.0882 0.14315 24.0428 2.35175 20.3991C5.76505 14.747 10.7846 11.6771 17.3817 11.6197C28.855 11.5337 40.357 11.591 51.8302 11.6197C52.3465 11.6197 52.9202 11.591 53.3218 11.8206C54.297 12.4231 55.1001 12.0501 55.9893 11.591C57.5956 10.7877 59.2018 10.0417 60.8368 9.29579C62.4717 8.54983 63.4182 9.00888 63.9632 10.1565C64.5082 11.3041 64.0493 12.4805 62.7298 13.1403C60.8654 14.0584 58.9724 14.9478 57.1079 15.8086C56.5343 16.0668 56.2761 16.3537 56.3048 16.9849C56.3622 18.3907 56.3622 19.7966 56.3048 21.1737C56.2761 21.8049 56.5056 22.1205 57.0793 22.3787L67.061 27.084L67.6347 27.3709C69.0401 28.0595 69.5278 29.2358 68.9541 30.4121C68.3804 31.5884 67.2044 31.904 65.8276 31.2728L55.473 26.3667C55.2044 26.2006 54.899 26.1032 54.5838 26.0831C54.2687 26.0631 53.9534 26.1211 53.666 26.252C52.9998 26.5121 52.2865 26.6294 51.5721 26.5963C49.6503 26.6536 47.7285 26.6249 45.8068 26.6249ZM42.5656 15.952L42.0493 15.8946H17.1523C14.8209 15.9002 12.5404 16.5775 10.5838 17.8456C6.79765 20.2843 4.76114 23.7559 4.33089 28.4038C8.34654 26.5963 12.4769 26.8832 16.5786 26.8832H32.6699C33.2165 26.8606 33.7406 26.659 34.1614 26.3093C35.4521 25.2765 36.6282 24.1002 37.9189 23.096C38.489 22.6991 39.15 22.4524 39.8407 22.3787C40.7012 22.264 41.619 22.35 42.5656 22.35V15.952ZM16.636 35.9494H32.0962V31.2155H16.636V35.9494ZM41.3609 26.4241C40.7298 26.6823 40.2422 26.7971 39.898 27.0553C38.9802 27.7726 38.177 28.6046 37.2879 29.2932C36.3987 29.9818 36.6282 30.2113 36.8289 30.8712C37.4949 33.4502 38.9488 35.757 40.988 37.47C41.4756 37.9004 42.0206 38.2447 42.5369 38.6463C40.988 34.7444 41.4469 30.7277 41.3609 26.4241ZM51.9737 22.264V15.952H47.0115V22.264H51.9737Z" fill="white"/>
<path d="M38.2346 75.8294C39.8122 75.8294 41.3898 75.8007 42.9387 75.8294C44.4876 75.8581 45.3767 76.6041 45.4054 78.2681V87.1622C45.3672 88.7498 44.564 89.5531 42.996 89.5723H38.0912V93.7324C38.0912 96.3146 37.5175 96.8597 34.9361 96.8597H26.9908C25.1551 96.8597 24.3806 96.085 24.352 94.2488V89.5723H19.9634C17.7835 89.5723 17.0664 88.855 17.0664 86.6745C17.0378 83.9776 17.0378 81.3093 17.0664 78.6124C17.0664 76.5467 17.7835 75.8294 19.82 75.8294H24.0078L24.352 75.7147V71.4111C24.352 69.2306 25.069 68.542 27.249 68.542H35.5384C37.3168 68.542 38.0625 69.288 38.0912 71.0668C38.1199 72.8456 38.1199 74.0219 38.1199 75.4851C38.1431 75.6044 38.1817 75.7201 38.2346 75.8294ZM28.6544 72.8743V77.5222C28.6258 79.3584 27.88 80.1043 26.0156 80.1043C24.1512 80.1043 22.9752 80.1043 21.4263 80.1043V85.2687H26.3598C27.3924 85.2687 28.1668 85.699 28.511 86.7032C28.6831 87.1622 28.6258 87.6787 28.6544 88.1951V92.4987H33.8174C33.8174 90.9781 33.7887 89.5149 33.8174 88.0516C33.8174 86.0146 34.5345 85.2687 36.5997 85.2687H41.0456V80.1043H36.7144C34.5345 80.1043 33.8174 79.4158 33.8174 77.2353C33.7887 75.772 33.8174 74.3375 33.8174 72.8743H28.6544Z" fill="white"/>
<path d="M106.616 44.1262C106.618 44.9702 106.453 45.8063 106.132 46.5867C105.811 47.3672 105.339 48.0767 104.744 48.6748C104.149 49.2729 103.441 49.7479 102.663 50.0726C101.884 50.3973 101.049 50.5654 100.205 50.5673C99.3613 50.5692 98.5254 50.4048 97.7452 50.0836C96.9649 49.7624 96.2556 49.2905 95.6576 48.6951C95.0597 48.0997 94.5848 47.3922 94.2602 46.6132C93.9356 45.8342 93.7675 44.9989 93.7656 44.1549C93.7618 42.4505 94.4351 40.8143 95.6373 39.6064C96.8396 38.3984 98.4723 37.7177 100.176 37.7139C101.88 37.7101 103.516 38.3835 104.724 39.5861C105.931 40.7886 106.612 42.4218 106.616 44.1262ZM102.313 44.1549C102.329 43.5966 102.124 43.0546 101.743 42.6465C101.361 42.2383 100.835 41.9969 100.277 41.9744C99.9894 41.9668 99.7035 42.0168 99.4359 42.1215C99.1682 42.2262 98.9242 42.3835 98.7183 42.584C98.5125 42.7846 98.3489 43.0244 98.2372 43.2893C98.1255 43.5542 98.068 43.8388 98.0681 44.1262C98.0681 44.4037 98.1232 44.6784 98.2302 44.9344C98.3372 45.1904 98.494 45.4226 98.6915 45.6175C98.889 45.8123 99.1232 45.966 99.3806 46.0695C99.6379 46.1731 99.9133 46.2245 100.191 46.2207C100.467 46.2283 100.741 46.1806 100.999 46.0802C101.256 45.9798 101.49 45.8289 101.688 45.6363C101.886 45.4437 102.043 45.2134 102.151 44.9589C102.258 44.7045 102.313 44.4311 102.313 44.1549Z" fill="white"/>
<path d="M71.077 16.9563H74.8345C76.24 16.985 77.1579 17.7883 77.1579 19.0507C77.1579 20.3131 76.2974 21.2312 74.8058 21.2599H67.2048C65.8567 21.2312 64.9102 20.3131 64.9102 19.0794C64.9102 17.8457 65.8567 16.985 67.2335 16.9563H71.077Z" fill="white"/>
<path d="M75.2644 31.1294C75.5473 31.196 75.8252 31.2823 76.0962 31.3876C77.9893 32.2483 79.8537 33.1377 81.7181 34.0558C82.9801 34.6583 83.4104 35.8634 82.8654 36.9823C82.3204 38.1012 81.1157 38.4742 79.8537 37.9004C77.9319 37.0397 76.0388 36.1216 74.1457 35.2035C73.6754 35 73.2975 34.6289 73.0855 34.1623C72.8735 33.6957 72.8424 33.1669 72.9984 32.6787C73.2852 31.7319 74.0884 31.1294 75.2644 31.1294Z" fill="white"/>
</g>
<defs>
<clipPath id="clip0_2471_171">
<rect width="110" height="110" fill="white"/>
</clipPath>
</defs>
</svg>
