<svg width="126" height="126" viewBox="0 0 126 126" fill="none" xmlns="http://www.w3.org/2000/svg">
<path d="M56.4705 1.54225C62.3111 4.69225 65.7892 9.18756 66.3142 15.8157C67.1673 26.1844 67.922 36.5532 68.6767 46.8891C68.9392 50.2032 69.4314 53.5173 68.4798 56.7985C67.1017 61.6548 64.1814 65.2641 59.6533 67.5282C59.0627 67.8235 58.7017 68.086 58.6689 68.8735C58.5377 78.7829 58.2095 88.6594 58.2423 98.5688C58.2752 104.18 58.9642 109.758 59.2267 115.336C59.4892 120.914 54.9939 125.934 49.1861 125.738C44.133 125.574 39.8017 121.374 39.8345 116.353C39.9002 112.088 40.3267 107.855 40.622 103.622C40.7205 102.375 41.6392 101.653 42.6564 101.784C43.6736 101.916 44.3627 102.703 44.2642 103.983C44.0345 107.691 43.772 111.431 43.5095 115.139C43.247 118.847 45.0517 121.045 47.9064 121.833C48.8158 122.092 49.7735 122.132 50.7014 121.951C51.6294 121.77 52.5015 121.372 53.2466 120.79C53.9917 120.208 54.5889 119.458 54.9895 118.601C55.39 117.745 55.5827 116.806 55.5517 115.861C55.4533 112.613 55.2236 109.331 54.9611 106.083C54.1408 96.7969 54.4361 87.511 54.633 78.2251C54.6986 75.2391 54.633 72.2532 54.633 69.2016H44.1986V70.5469C44.3955 79.1001 44.5705 87.686 44.7236 96.3047C44.7573 96.7121 44.7241 97.1222 44.6252 97.5188C44.5093 97.9452 44.2325 98.31 43.853 98.5365C43.4736 98.7629 43.0211 98.8333 42.5908 98.7329C41.6064 98.6016 41.0814 97.9454 41.0486 96.961C41.0158 95.9766 41.1142 94.6641 41.0814 93.5157C40.8845 85.4766 40.6548 77.4047 40.458 69.3657C40.4252 68.4141 40.1298 67.8563 39.2111 67.3969C36.2389 65.8906 33.7852 63.5297 32.1655 60.6178C30.5458 57.7058 29.8341 54.376 30.122 51.0563C31.008 39.5391 31.8939 28.0547 32.6814 16.5376C33.272 7.94069 38.4564 0.918811 46.9877 0.196936C49.4814 6.11544e-05 54.2064 0.295374 56.4705 1.54225ZM49.547 65.5922H51.6142C60.2439 65.5594 65.9861 59.1938 65.297 50.6297C64.3455 39.1782 63.4923 27.6938 62.672 16.2422C62.1798 9.5485 57.1595 4.26569 50.5314 3.74069C43.9033 3.21569 38.1283 7.64537 36.7502 14.1751C36.422 15.6188 36.3892 17.161 36.2908 18.6704C35.4377 29.7282 34.5189 40.7532 33.8298 51.8438C33.4689 57.3563 36.0939 61.4907 40.9502 64.1485C43.6408 65.6251 46.5939 65.6907 49.547 65.5922Z" fill="white"/>
<path d="M85.7059 63.2954C87.8387 63.2954 89.8402 63.3282 91.8418 63.2298C92.0715 63.2298 92.4652 62.6063 92.4652 62.2454C92.5309 59.0298 92.498 55.7813 92.498 52.5657C92.498 52.1063 92.4324 51.5157 92.6621 51.2532C92.8918 50.9907 93.7777 50.1376 94.3355 50.1376C94.8934 50.1376 95.5824 50.7282 96.009 51.2532C96.4355 51.7782 96.2059 52.1719 96.2059 52.6641V118.125C96.2059 122.686 92.9902 125.934 88.7574 125.738C87.0041 125.643 85.3476 124.904 84.106 123.662C82.8645 122.421 82.1254 120.764 82.0309 119.011V117.764C82.0309 82.2391 82.0199 46.7141 81.998 11.1891C81.998 9.45007 82.3918 7.97351 83.4746 6.62819C84.098 5.80788 84.623 4.95476 85.2465 4.13444C87.2809 1.47663 90.8902 1.47663 92.9246 4.10163C93.811 5.17482 94.6118 6.31581 95.3199 7.51413C95.821 8.3989 96.1128 9.38663 96.173 10.4016C96.2387 21.6235 96.2059 32.8454 96.2059 44.0673C96.2059 45.6751 95.123 46.6923 93.8434 46.1673C93.3184 45.9376 92.8918 45.2813 92.5965 44.7235C92.3012 44.1657 92.498 43.8376 92.498 43.3782C92.498 32.7469 92.4652 22.0829 92.5309 11.4516C92.5637 9.05632 90.8574 7.74382 89.6762 6.10319C89.5449 5.93913 88.4949 6.07038 88.2652 6.39851C86.723 8.23601 85.6074 10.1063 85.6402 12.8298C85.8043 29.1376 85.7059 45.4126 85.7059 61.7204V63.2954ZM85.8371 80.8173C85.7933 80.9343 85.7603 81.0551 85.7387 81.1782C85.7387 93.6798 85.7059 106.148 85.7387 118.617C85.721 119.508 86.0558 120.37 86.6703 121.015C87.2848 121.66 88.1293 122.037 89.0199 122.063C90.8246 122.095 92.2355 120.783 92.4652 118.88C92.498 118.486 92.498 118.059 92.498 117.666V80.8173H85.8371ZM92.4324 67.1016H85.8371V77.011H92.4324V67.1016Z" fill="white"/>
<path d="M49.5793 116.747C49.3352 116.751 49.0928 116.707 48.866 116.617C48.6393 116.526 48.4328 116.392 48.2587 116.221C48.0846 116.049 47.9463 115.845 47.8519 115.62C47.7575 115.395 47.7089 115.154 47.709 114.91C47.7253 114.436 47.9207 113.986 48.2557 113.651C48.5906 113.317 49.0402 113.121 49.5137 113.105C49.9868 113.096 50.4445 113.273 50.7882 113.598C51.1319 113.924 51.3341 114.371 51.3512 114.844C51.3744 115.088 51.3456 115.335 51.2666 115.568C51.1875 115.8 51.0601 116.014 50.8927 116.193C50.7253 116.373 50.5217 116.516 50.2953 116.611C50.0689 116.706 49.8249 116.753 49.5793 116.747Z" fill="white"/>
<path d="M49.547 62.9671C48.0048 62.8686 46.4298 62.9343 44.9204 62.6389C42.4315 62.2131 40.1911 60.8739 38.6375 58.8834C37.0839 56.8928 36.329 54.3942 36.5204 51.8765C37.3079 40.8515 38.161 29.8593 38.9813 18.8343C39.1126 17.2921 39.1782 15.7171 39.5392 14.2077C40.1408 11.8512 41.5517 9.78122 43.5251 8.35967C45.4985 6.93812 47.9087 6.25549 50.3345 6.43114C52.83 6.64268 55.1686 7.73656 56.9305 9.51653C58.6924 11.2965 59.7624 13.646 59.9485 16.1436C60.8017 27.7593 61.6767 39.3749 62.5735 50.9905C63.1313 57.8811 58.5704 62.8686 51.647 62.8686H49.547V62.9671ZM49.5142 59.0624V59.1936H52.336C55.5845 59.128 58.2423 56.9624 58.7673 53.7468C58.997 52.4343 58.8001 51.0561 58.7017 49.7108C57.9142 38.5874 57.061 27.464 56.2407 16.3077C56.1006 14.7275 55.4091 13.2469 54.2874 12.1251C53.1656 11.0034 51.685 10.3119 50.1048 10.1718C48.5604 10.0402 47.0188 10.454 45.7479 11.3412C44.477 12.2284 43.5573 13.5329 43.1485 15.028C42.9189 15.9745 42.7869 16.9421 42.7548 17.9155C42.2735 24.0624 41.8032 30.1765 41.3438 36.2577C40.9501 41.5405 40.5563 46.7905 40.2282 52.0405C39.9985 55.5843 42.2298 58.5046 45.7079 59.0624C46.9548 59.2593 48.2345 59.0624 49.5142 59.0624Z" fill="white"/>
</svg>
